<?xml version="1.0" standalone="no"?>
<!DOCTYPE svg PUBLIC "-//W3C//DTD SVG 20010904//EN"
 "http://www.w3.org/TR/2001/REC-SVG-20010904/DTD/svg10.dtd">
<svg version="1.0" xmlns="http://www.w3.org/2000/svg"
 width="460.000000pt" height="460.000000pt" viewBox="0 0 460.000000 460.000000"
 preserveAspectRatio="xMidYMid meet">
<metadata>
Created by potrace 1.14, written by Peter Selinger 2001-2017
</metadata>
<g transform="translate(0.000000,460.000000) scale(0.100000,-0.100000)"
fill="#000000" stroke="none">
<path d="M9 4587 c6 -8 8 -17 4 -20 -3 -4 2 -7 13 -8 15 -1 13 -3 -6 -9 -20
-7 -21 -8 -5 -9 11 0 58 13 105 29 l85 29 -104 1 c-85 0 -102 -2 -92 -13z"/>
<path d="M1941 4568 c5 -18 9 -35 9 -38 0 -3 -51 -3 -112 -1 -62 2 -107 5
-100 8 6 3 10 9 6 14 -7 11 -57 0 -66 -16 -10 -16 -81 -7 -74 11 3 8 0 11 -9
7 -8 -3 -12 -9 -9 -14 3 -5 -2 -9 -11 -9 -13 0 -14 4 -5 20 7 14 7 20 0 20 -5
0 -10 -4 -10 -10 0 -16 -39 -31 -93 -35 -29 -2 -164 -6 -302 -10 -562 -14
-1165 -52 -1165 -74 0 -7 42 -5 265 14 203 18 539 33 915 42 248 5 278 4 308
-11 29 -15 37 -15 55 -4 15 9 41 12 80 8 31 -3 57 -2 57 2 0 13 28 9 32 -4 3
-7 10 -8 17 -4 8 6 9 11 3 15 -6 3 44 6 109 6 116 0 120 -1 125 -22 5 -18 11
-22 30 -17 13 3 32 3 41 -1 17 -6 17 -7 0 -16 -9 -6 -27 -7 -40 -3 -18 5 -20
4 -9 -7 6 -7 12 -18 12 -25 0 -7 9 -33 19 -57 l20 -45 37 13 c21 7 49 11 61 9
15 -3 23 0 23 10 0 20 26 27 57 15 22 -8 24 -12 13 -19 -8 -6 -25 -10 -38 -10
-13 0 -20 -4 -17 -10 4 -6 3 -10 -2 -9 -20 3 -43 -2 -43 -10 0 -5 10 -7 23 -4
19 4 20 3 4 -7 -9 -6 -22 -8 -27 -5 -6 3 -10 0 -10 -7 0 -9 -3 -10 -8 -2 -4 6
-18 15 -32 19 -25 8 -25 8 -6 -14 11 -11 14 -21 8 -21 -7 0 -12 4 -12 8 0 5
-7 9 -15 9 -8 0 -12 -4 -9 -9 10 -16 -7 -30 -22 -17 -10 8 -14 8 -14 0 0 -6
-8 -11 -17 -11 -17 1 -17 1 0 14 16 13 15 15 -14 25 -31 11 -49 8 -49 -9 0 -5
8 -10 18 -12 15 -3 14 -5 -3 -9 -16 -5 -21 -1 -22 14 -2 26 -23 39 -40 25 -7
-5 -20 -7 -29 -4 -9 4 -23 1 -31 -5 -7 -7 -16 -9 -20 -5 -3 3 -1 6 5 6 7 0 12
13 12 28 0 15 6 34 13 41 10 11 8 11 -9 1 -15 -9 -19 -20 -16 -38 4 -20 2 -24
-12 -19 -10 4 -16 1 -16 -9 0 -17 -30 -12 -64 12 -10 7 -26 10 -35 7 -13 -4
-13 -3 -2 5 9 6 11 17 7 28 -7 17 -9 16 -23 -9 -13 -26 -13 -30 4 -43 10 -8
26 -12 36 -10 9 2 15 1 12 -4 -3 -4 2 -10 9 -13 8 -3 17 -1 19 6 2 7 8 9 13 4
4 -4 -2 -18 -14 -30 -15 -14 -25 -18 -30 -11 -4 5 -16 11 -27 12 -11 1 -39 5
-62 8 -30 4 -43 2 -43 -6 0 -8 10 -9 30 -5 24 5 29 4 24 -8 -3 -9 -14 -13 -27
-10 -18 4 -19 3 -7 -6 23 -16 63 -14 57 3 -7 18 38 15 56 -4 10 -10 8 -11 -10
-5 -31 9 -29 -1 5 -20 26 -16 26 -16 2 -10 -64 16 -90 16 -112 1 -13 -10 -17
-16 -9 -16 8 0 12 -2 9 -5 -3 -3 -12 -3 -21 1 -22 8 -10 34 16 34 21 0 21 0
-1 16 -12 8 -22 21 -22 27 0 8 -23 13 -67 15 -37 1 -72 7 -78 12 -6 5 -16 5
-25 -2 -13 -8 -13 -9 1 -5 8 3 25 -2 37 -12 21 -15 19 -16 -41 -16 -56 0 -63
2 -65 20 0 11 4 22 10 26 6 4 -5 10 -23 14 -46 10 -70 45 -30 42 16 -1 18 -4
8 -16 -10 -12 -8 -13 12 -6 16 5 21 4 17 -4 -5 -7 6 -11 31 -12 32 0 35 -2 18
-10 -16 -8 -14 -8 11 -5 18 3 35 2 38 -2 4 -3 18 -8 31 -9 19 -3 23 0 19 12
-3 8 -2 15 4 15 6 0 18 3 27 6 9 4 15 3 14 -2 -4 -24 3 -34 25 -34 14 0 28 5
31 10 4 7 12 7 25 0 10 -5 25 -10 32 -9 18 0 -31 20 -60 24 -31 3 -37 12 -22
30 10 12 9 15 -6 16 -11 0 -34 2 -51 3 -18 2 -30 0 -27 -5 3 -5 -4 -9 -15 -9
-12 0 -21 -4 -21 -10 0 -14 -42 -12 -62 4 -24 18 -23 29 1 21 11 -3 23 -1 27
6 4 7 2 10 -7 7 -8 -3 -19 2 -25 11 -9 12 -15 13 -26 3 -11 -9 -17 -9 -26 0
-9 9 -12 8 -12 -5 0 -11 -8 -17 -22 -16 -22 0 -22 1 -3 9 17 7 17 9 3 9 -10 1
-22 -8 -28 -19 -9 -17 -14 -18 -30 -7 -11 6 -20 17 -20 24 0 7 -5 13 -11 13
-5 0 -7 5 -4 10 4 6 -5 10 -20 10 -23 0 -24 -2 -15 -20 6 -11 18 -20 28 -20
14 0 14 -2 3 -9 -11 -7 -6 -13 18 -26 18 -9 31 -18 29 -19 -9 -8 -97 -12 -92
-5 3 5 -10 7 -28 5 -18 -2 -35 -1 -38 3 -3 3 -27 3 -55 0 -27 -3 -38 -7 -23
-7 20 -2 26 -6 22 -17 -4 -10 0 -15 11 -15 10 0 14 5 9 13 -6 10 -4 10 7 0 7
-7 20 -13 29 -12 10 0 9 3 -5 9 -13 6 -15 9 -5 9 23 1 43 -15 38 -30 -5 -16
-188 -24 -188 -8 0 6 4 8 9 4 5 -3 13 0 16 6 5 7 -3 9 -21 7 -17 -2 -28 -8
-27 -15 3 -15 -13 -17 -22 -3 -3 6 -12 10 -18 10 -8 0 -8 -3 2 -9 9 -6 10 -11
2 -15 -15 -10 -26 23 -12 37 21 21 11 27 -40 27 -29 0 -48 4 -44 10 3 5 12 7
20 3 8 -3 15 0 15 6 0 11 -13 15 -37 12 -7 -1 -13 5 -13 14 0 8 -4 15 -9 15
-16 0 -61 -41 -56 -51 4 -5 -3 -9 -14 -9 -12 0 -21 -4 -21 -9 0 -6 12 -6 32 0
50 14 56 10 18 -12 -21 -12 -26 -17 -12 -14 13 4 22 2 22 -4 0 -18 29 -13 52
9 24 22 38 26 38 10 0 -5 8 -10 18 -11 9 0 12 -3 5 -5 -7 -3 -9 -12 -6 -20 4
-10 0 -12 -10 -8 -9 3 -24 1 -34 -5 -16 -9 -16 -10 4 -11 13 0 22 -6 20 -12
-3 -20 -20 -28 -41 -22 -12 4 -16 2 -12 -5 4 -6 14 -11 22 -11 8 0 13 -4 10
-8 -10 -16 38 -10 50 6 9 12 13 13 14 4 0 -7 3 -11 8 -9 4 3 13 -1 20 -9 11
-12 9 -16 -13 -24 -15 -6 -43 -10 -63 -11 -33 -1 -34 -2 -12 -8 14 -5 41 -6
60 -4 34 4 34 3 15 -12 -11 -9 -15 -14 -10 -11 6 2 17 1 25 -5 11 -6 11 -9 3
-10 -7 -1 -17 -2 -23 -3 -17 -2 -13 -20 7 -27 14 -6 14 -8 3 -8 -22 -1 -40 18
-33 36 3 7 2 13 -3 12 -23 -4 -45 2 -39 11 8 13 -1 13 -25 0 -13 -7 -21 -5
-31 7 -12 14 -12 16 0 8 10 -5 12 -4 7 3 -9 14 -43 16 -51 2 -3 -5 -12 -7 -20
-3 -8 3 -15 0 -15 -5 0 -6 -18 -10 -40 -10 -23 0 -44 -2 -47 -6 -4 -3 6 -6 20
-6 15 0 27 -4 27 -9 0 -5 3 -16 6 -25 5 -13 -1 -16 -27 -15 -19 1 -27 3 -17 6
20 5 32 33 15 33 -7 0 -19 -6 -26 -12 -10 -11 -11 -10 -6 5 5 11 2 17 -6 17
-10 0 -10 3 -1 12 15 15 16 32 2 23 -5 -3 -10 -3 -10 0 0 3 14 11 30 16 54 19
35 35 -35 30 l-30 -2 25 14 c16 9 31 11 42 5 27 -13 58 -10 52 6 -8 20 11 28
70 32 63 3 67 4 37 13 -13 3 -51 4 -85 0 -42 -4 -69 -2 -88 7 -34 18 -44 34
-27 45 8 5 15 4 17 -1 2 -6 15 -10 28 -10 15 0 23 4 19 11 -4 6 -13 8 -21 5
-7 -3 -16 -1 -19 4 -3 5 -19 5 -37 -1 -21 -6 -36 -5 -45 2 -7 6 -13 9 -13 5 0
-3 18 -18 41 -33 38 -25 39 -28 23 -40 -24 -18 -44 -16 -60 5 -13 16 -15 15
-34 -8 -11 -14 -20 -19 -20 -12 0 9 -5 10 -19 2 -25 -13 -41 -13 -21 0 12 8 9
10 -13 10 -15 0 -30 7 -33 15 -5 13 -9 13 -22 3 -13 -11 -14 -10 -4 9 7 12 17
25 22 28 6 4 8 11 4 16 -3 6 -17 -2 -30 -16 -13 -15 -22 -30 -20 -34 7 -10
-32 -30 -66 -34 -15 -1 -30 -6 -34 -10 -4 -4 -12 -7 -18 -7 -6 0 -1 7 11 15
19 13 38 55 25 55 -3 0 -18 -15 -33 -32 -15 -19 -31 -29 -36 -24 -4 5 -2 11 5
13 6 3 12 12 12 20 0 13 -3 13 -15 3 -8 -7 -15 -19 -15 -26 0 -8 -5 -14 -11
-14 -5 0 -7 5 -3 11 4 7 -2 7 -17 -1 -12 -7 -34 -16 -48 -21 l-26 -7 28 -1
c24 -1 26 -3 17 -20 -12 -23 -13 -42 -2 -23 13 20 58 24 76 7 8 -8 21 -15 30
-15 25 0 29 -20 4 -21 -20 -1 -21 -2 -3 -6 11 -3 25 -12 31 -21 6 -8 16 -12
22 -8 12 7 5 37 -12 48 -7 5 -4 8 7 8 9 0 17 5 17 10 0 6 4 10 10 10 5 0 7 -7
4 -15 -4 -10 3 -18 22 -25 20 -8 30 -8 32 -1 6 17 49 13 68 -6 13 -14 14 -18
3 -22 -8 -2 -25 -13 -39 -24 l-25 -20 43 6 c44 5 52 -2 26 -24 -17 -14 -76
-20 -68 -7 3 4 0 8 -6 8 -6 0 -9 12 -8 28 2 17 -1 26 -9 25 -7 -2 -10 4 -6 13
3 9 0 14 -8 12 -31 -7 -53 -48 -26 -48 6 0 4 -5 -7 -11 -13 -8 -24 -8 -41 1
-13 7 -29 9 -36 5 -17 -11 17 -35 50 -36 l26 -1 -29 -12 c-17 -8 -24 -16 -18
-20 14 -9 52 15 52 32 0 10 5 10 22 -2 12 -9 33 -16 45 -16 14 0 23 -6 23 -15
0 -10 -10 -15 -29 -15 -17 0 -31 -6 -35 -16 -4 -12 -20 -15 -68 -14 -83 1
-178 -10 -178 -21 0 -5 5 -9 10 -9 6 0 9 -6 8 -12 -3 -12 2 -14 45 -17 10 0
16 -5 13 -10 -3 -5 5 -12 19 -15 15 -4 22 -11 19 -20 -3 -8 -14 -12 -25 -9
-11 3 -21 -1 -25 -11 -4 -9 -18 -16 -35 -16 l-28 0 -1 -375 0 -375 36 0 c24 0
49 9 70 25 18 14 42 25 53 25 11 0 31 5 45 11 30 14 70 4 46 -11 -11 -7 -2
-10 30 -10 27 0 40 4 32 9 -10 6 -9 11 4 22 14 11 18 11 29 -4 21 -28 35 -20
35 22 l0 38 49 -5 c42 -4 51 -1 63 17 16 26 32 27 58 1 17 -17 20 -33 20 -110
l0 -89 -285 6 -285 6 0 -257 c0 -242 1 -258 18 -251 9 3 105 6 212 5 203 -1
213 -3 208 -45 -3 -19 -9 -20 -220 -16 -196 3 -218 2 -218 -13 0 -11 9 -16 29
-16 34 0 50 -16 24 -24 -10 -3 1 -4 25 -2 36 4 41 2 31 -10 -7 -9 -30 -14 -60
-14 l-49 0 0 -65 0 -65 93 -1 c50 0 112 -4 137 -9 32 -7 5 -8 -92 -5 l-138 3
0 -474 0 -474 33 -1 c66 -3 92 -1 111 6 10 4 39 3 66 -3 26 -6 57 -8 68 -5 13
3 22 1 22 -6 0 -7 -24 -11 -65 -11 -69 0 -155 -18 -155 -33 0 -5 18 -6 40 -2
50 8 175 -4 145 -15 -11 -4 40 -9 113 -12 73 -3 136 -8 139 -12 11 -11 -7 -20
-55 -27 -40 -5 -34 -7 38 -8 47 -1 103 -8 125 -16 71 -25 71 -25 83 78 30 256
35 328 25 349 -6 14 -7 47 -2 83 4 33 8 87 10 120 2 55 2 57 8 20 5 -34 8 -26
18 60 7 55 20 188 28 295 8 107 17 212 20 232 4 29 1 37 -12 41 -16 4 -16 5
-1 6 10 1 18 11 20 29 3 29 29 39 74 28 36 -9 45 -62 39 -232 -5 -154 -13
-296 -19 -349 -9 -76 -18 -164 -20 -200 -1 -23 -6 -46 -10 -53 -4 -7 -2 -12 4
-12 7 0 10 -7 6 -15 -7 -19 -23 -153 -31 -259 -3 -44 -8 -82 -10 -85 -2 -3 -6
-44 -10 -91 -3 -46 -8 -87 -10 -90 -2 -4 -9 -87 -15 -186 -17 -297 -14 -282
-60 -329 -22 -22 -40 -44 -40 -48 0 -18 33 -3 67 31 21 21 29 27 18 14 l-20
-23 29 5 c16 3 33 11 38 18 4 7 8 10 8 6 0 -5 8 0 18 10 32 29 65 56 87 69 18
12 18 13 -9 8 -16 -2 -36 -11 -46 -20 -9 -8 -20 -15 -24 -15 -14 0 31 37 78
65 48 27 49 28 25 37 -22 9 -114 3 -144 -9 -20 -7 -22 45 -8 186 16 159 25
186 56 177 12 -3 34 -6 50 -6 29 0 38 -19 10 -21 -58 -4 82 -18 181 -18 146
-1 144 13 -4 29 -58 7 -127 18 -154 26 -27 8 -65 14 -83 14 -18 0 -33 5 -33
11 0 15 268 6 320 -10 19 -6 85 -13 145 -16 154 -7 149 -5 153 -51 7 -75 -9
-205 -27 -222 -39 -37 -57 -47 -80 -44 -16 3 -21 0 -16 -9 5 -8 4 -10 -3 -5
-16 10 -129 -47 -173 -87 -20 -18 -47 -42 -62 -54 -14 -11 -56 -47 -93 -79
-36 -33 -73 -63 -81 -68 -9 -5 -23 -15 -32 -22 -9 -8 -20 -14 -25 -13 -5 0
-17 -12 -27 -28 -10 -15 -19 -22 -19 -14 0 8 -3 11 -7 8 -10 -10 -33 13 -33
33 0 11 11 21 28 25 l27 7 -23 9 c-13 5 -29 6 -34 2 -7 -3 -8 -1 -4 5 4 7 3
12 -3 12 -5 0 -12 -6 -15 -12 -4 -7 -4 -3 -2 10 3 15 0 20 -7 15 -12 -7 -17
-8 -72 -11 -23 -2 -27 -4 -15 -12 12 -8 11 -10 -7 -10 -26 0 -27 9 -14 150 5
47 7 90 4 96 -2 7 -37 12 -86 13 -161 3 -488 21 -497 26 -6 3 -25 3 -45 -1
l-35 -6 0 -364 0 -364 200 0 201 0 19 44 c10 25 41 67 69 94 78 76 169 92 206
35 16 -24 17 -38 3 -143 l-3 -25 488 -3 c474 -2 487 -2 470 16 -104 109 -163
191 -163 226 0 8 -9 33 -19 56 -15 33 -20 38 -24 24 -3 -11 -5 3 -6 29 -1 60
27 330 39 377 5 19 12 87 16 150 4 63 11 120 16 127 5 7 5 12 -2 15 -6 2 -8
11 -5 21 4 9 11 14 16 11 23 -14 6 62 -24 109 -18 29 -38 63 -45 77 -6 14 -16
32 -22 40 -21 33 -48 107 -55 150 -3 25 -20 95 -36 157 -21 82 -32 153 -39
265 -5 84 -13 187 -16 228 -7 88 12 205 57 350 16 52 34 138 40 190 13 129 34
187 68 191 60 7 233 1 243 -9 6 -6 19 -6 39 1 24 9 39 8 76 -5 50 -18 63 -16
63 8 0 16 -70 87 -78 80 -2 -3 -17 1 -33 10 -20 10 -46 13 -85 9 -42 -4 -54
-3 -48 6 5 9 2 10 -12 4 -10 -4 -37 -10 -58 -13 -22 -2 -55 -13 -73 -23 -19
-11 -35 -19 -37 -19 -8 0 41 129 64 172 6 10 10 23 10 29 0 15 62 116 92 150
13 14 42 38 66 53 23 14 42 30 42 35 0 15 72 44 109 44 29 0 38 6 48 26 l12
26 1 -30 c0 -17 3 -25 8 -18 5 8 14 6 32 -9 14 -11 18 -16 10 -12 -12 6 -13 5
-2 -7 9 -10 15 -10 20 -3 15 24 40 11 44 -23 3 -20 0 -32 -6 -30 -6 2 -10 15
-8 28 3 22 2 23 -13 8 -11 -11 -15 -24 -10 -35 7 -19 96 -101 149 -139 16 -11
48 -34 72 -52 54 -40 120 -74 128 -66 3 4 6 1 6 -5 0 -6 8 -13 18 -16 10 -4
26 -23 36 -43 11 -22 20 -32 25 -25 4 6 12 8 20 3 21 -14 3 -31 -32 -31 -18 0
-50 -5 -72 -11 -22 -6 -62 -15 -90 -21 -51 -10 -85 -31 -85 -53 0 -7 -7 -18
-15 -25 -20 -17 -11 -68 16 -92 22 -19 25 -29 7 -26 -7 2 -13 -4 -14 -12 0 -8
-4 -28 -9 -43 -8 -31 9 -107 25 -107 6 0 10 4 10 8 0 4 13 13 29 19 29 11 29
10 19 -19 -12 -34 -7 -43 19 -30 24 13 113 -4 110 -21 -1 -6 9 -13 21 -15 41
-6 23 31 -20 41 -45 11 -53 35 -22 71 23 26 24 26 24 6 0 -24 30 -80 42 -80 4
0 8 -9 8 -19 0 -26 63 -45 84 -24 9 9 46 11 46 3 0 -8 179 -32 225 -30 17 0
38 8 47 18 16 15 16 21 4 57 -14 41 -12 61 4 35 7 -11 11 -9 20 12 9 18 20 25
41 26 16 0 29 -3 29 -8 0 -4 18 0 40 11 51 25 51 25 77 -14 25 -36 40 -116 49
-264 7 -109 -6 -168 -47 -206 -10 -10 -19 -27 -19 -37 0 -11 -5 -20 -11 -20
-7 0 -9 -9 -5 -24 3 -12 3 -26 -1 -30 -14 -13 -11 -85 3 -97 10 -8 14 -8 14 0
0 6 5 11 10 11 6 0 10 -9 10 -20 0 -23 10 -26 28 -8 17 17 26 3 25 -37 -1 -19
3 -32 8 -29 5 3 7 10 4 15 -3 5 1 6 9 3 18 -7 26 22 14 55 -7 19 -2 34 22 70
16 25 30 42 30 38 0 -5 7 -2 15 7 8 8 15 21 15 28 0 10 -3 9 -10 -2 -5 -8 -10
-10 -10 -4 0 6 7 17 16 25 14 11 15 8 12 -27 -2 -29 -9 -41 -25 -49 -13 -5
-23 -12 -23 -16 0 -3 -9 -16 -19 -28 -26 -30 -18 -47 27 -57 22 -4 30 -9 20
-11 -10 -3 -18 -9 -18 -14 0 -6 -8 -5 -20 1 -25 13 -26 2 -2 -16 16 -13 16
-14 0 -8 -15 5 -18 0 -18 -29 0 -52 -16 -87 -40 -87 -27 0 -36 26 -23 61 6 16
8 31 4 34 -5 2 -14 -15 -21 -38 -26 -87 -64 -192 -71 -195 -4 -2 -5 -12 -2
-22 3 -11 1 -20 -5 -20 -6 0 -16 -16 -23 -35 -7 -19 -18 -34 -23 -32 -6 2 -16
-1 -23 -7 -31 -27 -41 -34 -61 -40 -12 -4 -22 -13 -22 -19 0 -7 -20 -21 -43
-31 -23 -11 -46 -25 -52 -31 -12 -14 -74 -32 -137 -40 -34 -4 -51 -12 -59 -26
-6 -12 -17 -18 -25 -15 -19 7 -84 -19 -84 -33 0 -15 -75 -61 -98 -61 -11 0
-38 -14 -61 -31 -25 -17 -49 -28 -58 -25 -9 4 -21 2 -27 -3 -22 -19 -150 -37
-383 -56 -106 -9 -124 -24 -65 -54 20 -10 52 -21 70 -24 37 -7 44 -13 119 -85
30 -29 65 -59 79 -68 13 -9 24 -22 24 -29 0 -7 6 -15 13 -18 9 -3 9 -7 -1 -20
-11 -12 -10 -21 1 -50 8 -19 20 -38 26 -41 6 -4 9 -11 6 -16 -3 -5 3 -7 13 -5
40 7 112 9 118 2 4 -4 -8 -7 -26 -7 -44 0 -30 -13 37 -34 66 -22 97 -18 101
11 3 18 10 23 33 23 27 0 29 2 29 40 0 40 14 52 36 30 7 -7 15 -2 25 16 11 23
12 28 1 32 -9 3 -2 11 17 23 19 12 29 24 25 33 -6 17 25 65 42 66 7 0 14 9 17
20 3 12 14 20 26 20 12 0 21 6 21 15 0 8 6 15 14 15 8 0 16 7 20 15 3 8 14 15
25 15 25 0 38 20 14 21 -10 0 -13 3 -5 6 6 2 12 11 12 18 0 8 8 12 23 9 12 -2
16 -2 9 2 -8 4 6 24 43 60 31 30 53 59 50 64 -3 5 4 15 15 23 12 8 20 18 19
23 -4 16 31 85 46 91 8 3 15 13 15 23 0 10 11 28 25 41 13 13 25 29 25 35 0
16 31 27 43 15 5 -5 10 -47 9 -92 0 -45 4 -92 8 -103 8 -20 9 -20 9 -2 1 11 4
16 8 13 6 -7 -4 -34 -51 -141 -20 -48 -21 -59 -17 -411 3 -330 2 -363 -14
-376 -9 -8 -24 -22 -33 -31 -9 -10 -22 -18 -28 -18 -6 0 -23 -11 -38 -25 -17
-15 -35 -24 -45 -20 -12 4 -19 -3 -26 -27 -7 -22 -16 -33 -27 -32 -10 1 -18
-5 -18 -13 0 -8 -8 -13 -17 -11 -10 2 -18 -3 -18 -9 0 -7 -4 -13 -10 -14 -5 0
-19 -9 -31 -20 -16 -15 -23 -16 -32 -7 -9 9 -12 7 -12 -10 l0 -22 1015 0 1015
0 0 215 0 215 -22 2 c-13 0 -31 1 -40 0 -10 -1 -18 3 -18 8 0 6 -21 10 -46 10
-25 0 -77 5 -116 12 -55 9 -73 9 -76 0 -5 -15 -42 -16 -42 -2 0 6 6 10 13 10
6 0 4 5 -6 11 -22 13 -52 8 -53 -9 -1 -6 -2 -16 -3 -22 0 -5 -6 -10 -12 -10
-5 0 -7 5 -4 10 4 6 -7 10 -25 10 -26 0 -31 3 -26 16 5 14 1 16 -31 10 -21 -3
-74 -11 -118 -17 -44 -6 -81 -12 -83 -14 -2 -2 -28 12 -57 30 -63 40 -195 95
-230 95 -13 0 -50 7 -81 15 -37 9 -76 13 -110 9 -67 -8 -111 11 -174 75 -60
61 -142 131 -153 131 -11 0 -12 1 66 -94 32 -39 57 -75 57 -82 0 -6 -10 -19
-23 -27 -13 -8 -48 -53 -79 -99 -31 -45 -67 -96 -82 -111 -14 -15 -26 -32 -26
-36 0 -4 -9 -16 -19 -25 -19 -17 -19 -15 -25 66 -3 46 -8 189 -10 318 -6 231
-5 236 19 300 l24 65 0 -48 1 -49 148 8 c214 11 360 9 412 -6 l45 -14 -94 -8
c-107 -9 -145 -19 -58 -15 31 1 59 -2 62 -8 3 -6 7 -5 11 2 4 9 11 10 22 4 9
-5 58 -11 107 -15 50 -3 113 -9 142 -14 33 -5 50 -5 46 1 -4 6 9 8 33 4 96
-16 182 -19 200 -9 15 9 4 11 -53 12 -75 0 -162 14 -202 34 l-24 11 29 6 c41
9 119 10 128 2 3 -4 -6 -13 -21 -20 -16 -7 -20 -11 -10 -8 47 13 134 15 270 7
177 -11 210 -26 81 -38 -108 -9 -91 -14 126 -39 80 -9 160 -19 178 -22 l34 -6
-3 219 c-2 121 -7 224 -12 231 -5 7 -6 45 -2 85 3 40 8 405 11 811 l4 737
-207 0 c-115 0 -280 3 -367 7 l-159 6 6 324 c4 219 3 323 -4 323 -6 0 -7 5 -4
10 3 6 50 10 103 10 53 0 114 4 134 9 20 5 40 5 45 1 4 -5 108 -6 231 -3 l222
6 -1 209 c-1 185 -3 208 -18 209 -14 0 -14 1 -1 7 8 4 16 17 18 29 2 16 -3 23
-20 26 -22 4 -22 4 -1 6 21 1 21 3 21 196 0 174 -2 195 -17 195 -14 1 -14 2 2
11 11 6 17 22 17 44 l0 34 -1334 1 -1335 0 10 -32z m1564 -8 c-10 -11 -22 -20
-27 -20 -4 0 -3 9 4 20 7 11 19 20 27 20 11 0 10 -5 -4 -20z m101 -5 c-8 -8
-21 -15 -28 -16 -7 0 -4 -4 6 -8 19 -7 19 -8 -2 -13 -13 -4 -22 -2 -22 5 0 14
32 46 48 46 10 1 10 -3 -2 -14z m-296 -2 c0 -5 -15 -8 -34 -8 -19 0 -32 3 -29
8 2 4 17 7 34 7 16 0 29 -3 29 -7z m-20 -21 c0 -5 -7 -9 -15 -9 -8 0 -12 4 -9
9 3 4 9 8 15 8 5 0 9 -4 9 -8z m489 -18 c2 -2 -18 -4 -45 -3 -36 0 -44 3 -29
9 18 7 63 3 74 -6z m561 -4 c-36 -11 -52 -11 -45 0 3 6 21 10 38 9 31 -1 31
-1 7 -9z m-444 -20 c8 0 14 -5 14 -11 0 -6 -7 -9 -15 -5 -10 3 -15 -1 -15 -12
-1 -13 -3 -12 -13 6 -7 12 -17 19 -22 15 -4 -4 -5 -2 -1 5 5 7 15 11 23 8 8
-3 21 -6 29 -6z m341 3 c-9 -2 -15 -8 -13 -11 2 -4 -14 -5 -37 -3 l-42 5 40 7
c47 7 78 9 52 2z m-417 -7 c0 -2 -13 -6 -29 -8 -17 -2 -28 -1 -25 4 5 8 54 12
54 4z m153 -3 c3 -5 -8 -8 -24 -8 -16 0 -29 3 -29 8 0 4 11 7 24 7 14 0 27 -3
29 -7z m-873 -13 c-8 -5 -19 -10 -25 -10 -5 0 -3 5 5 10 8 5 20 10 25 10 6 0
3 -5 -5 -10z m61 -21 c8 -1 1 -4 -16 -8 -37 -9 -39 -8 -30 20 7 21 9 21 20 6
7 -9 18 -18 26 -18z m866 25 c-3 -3 -12 -4 -19 -1 -8 3 -5 6 6 6 11 1 17 -2
13 -5z m84 -11 c8 -8 7 -13 -1 -18 -16 -10 -57 2 -57 18 0 15 43 15 58 0z
m457 6 c-2 -6 -8 -10 -13 -10 -5 0 -11 4 -13 10 -2 6 4 11 13 11 9 0 15 -5 13
-11z m-298 -8 c0 -5 -11 -11 -25 -13 -26 -5 -35 6 -12 15 20 9 37 8 37 -2z
m-850 -31 c0 -5 -8 -10 -17 -10 -15 0 -16 2 -3 10 19 12 20 12 20 0z m757 4
c-3 -3 -12 -4 -19 -1 -8 3 -5 6 6 6 11 1 17 -2 13 -5z m-961 -19 c16 -8 22
-15 14 -15 -18 1 -70 29 -54 30 7 0 25 -7 40 -15z m859 5 c-3 -5 -16 -10 -28
-9 -20 1 -20 2 3 9 14 4 26 8 28 9 2 1 0 -3 -3 -9z m225 6 c0 -3 -4 -8 -10
-11 -5 -3 -10 -1 -10 4 0 6 5 11 10 11 6 0 10 -2 10 -4z m-155 -16 c-3 -5 -14
-10 -23 -9 -14 0 -13 2 3 9 27 11 27 11 20 0z m400 1 c-12 -10 -65 -24 -65
-16 0 7 40 24 60 24 8 1 10 -2 5 -8z m-1072 -21 c-3 -11 -7 -20 -9 -20 -2 0
-4 9 -4 20 0 11 4 20 9 20 5 0 7 -9 4 -20z m994 4 c-9 -9 -77 -11 -77 -2 0 5
19 8 42 8 23 0 39 -3 35 -6z m93 -9 c-7 -8 -17 -15 -22 -15 -6 0 -5 7 2 15 7
8 17 15 22 15 6 0 5 -7 -2 -15z m-1836 -11 c4 -10 13 -13 28 -9 21 5 21 5 5
-5 -14 -9 -22 -8 -35 3 -9 8 -26 17 -37 20 -16 4 -14 5 6 6 16 1 29 -5 33 -15z
m331 -24 c-3 -5 -12 -7 -20 -3 -21 7 -19 13 6 13 11 0 18 -4 14 -10z m290 0
c3 -5 1 -10 -4 -10 -6 0 -11 5 -11 10 0 6 2 10 4 10 3 0 8 -4 11 -10z m36 -13
c-10 -9 -11 -8 -5 6 3 10 9 15 12 12 3 -3 0 -11 -7 -18z m939 13 c0 -5 -5 -10
-11 -10 -5 0 -7 5 -4 10 3 6 8 10 11 10 2 0 4 -4 4 -10z m105 -10 c-3 -5 -13
-10 -21 -10 -8 0 -12 5 -9 10 3 6 13 10 21 10 8 0 12 -4 9 -10z m-1651 -12
c-3 -4 -11 -5 -19 -1 -21 7 -19 12 4 10 11 0 18 -5 15 -9z m786 8 c0 -3 -4 -8
-10 -11 -5 -3 -10 -1 -10 4 0 6 5 11 10 11 6 0 10 -2 10 -4z m-1300 -47 c0
-11 -6 -19 -14 -19 -21 0 -30 18 -17 34 6 7 7 17 3 22 -4 4 1 2 11 -5 9 -7 17
-22 17 -32z m560 33 c0 -15 -11 -21 -27 -15 -12 5 -12 7 -1 14 17 11 28 11 28
1z m93 -20 c9 -8 17 -21 17 -29 0 -7 5 -13 10 -13 6 0 10 -4 10 -10 0 -20 -21
-9 -30 15 -7 17 -17 25 -34 25 -22 0 -41 21 -29 33 7 8 34 -3 56 -21z m44 22
c-3 -3 -12 -4 -19 -1 -8 3 -5 6 6 6 11 1 17 -2 13 -5z m-1702 -24 c3 -5 1 -10
-4 -10 -6 0 -11 5 -11 10 0 6 2 10 4 10 3 0 8 -4 11 -10z m2101 1 c-4 -5 0
-11 6 -14 7 -3 -6 -5 -30 -5 -45 0 -46 13 -2 21 14 2 26 5 28 6 2 0 1 -3 -2
-8z m-549 -17 c-3 -3 -12 -4 -19 -1 -8 3 -5 6 6 6 11 1 17 -2 13 -5z m-914
-23 c-3 -12 -11 -17 -19 -14 -11 4 -12 9 -3 19 16 20 28 17 22 -5z m343 4 l29
-15 -37 0 c-29 0 -36 3 -32 15 7 18 5 18 40 0z m378 2 c49 -13 75 -37 39 -37
-14 0 -15 2 -5 9 10 6 7 10 -12 13 -29 6 -36 -6 -36 -66 0 -35 -3 -42 -20 -43
-11 -1 -20 2 -20 8 0 5 -4 9 -9 9 -5 0 -8 -8 -6 -17 2 -13 11 -18 31 -16 16 1
21 -1 12 -4 -10 -2 -18 -12 -17 -21 0 -11 2 -12 6 -4 2 6 9 12 14 12 15 0 10
-22 -8 -37 -17 -13 -17 -13 2 -11 24 4 45 40 39 65 -4 16 2 18 49 18 49 0 53
-2 43 -17 -6 -10 -13 -18 -16 -18 -7 0 -5 -79 1 -84 2 -2 13 0 24 5 11 4 14 8
8 8 -15 1 -18 31 -3 31 6 0 10 -7 10 -15 0 -8 8 -15 18 -16 11 0 7 -4 -10 -11
-16 -5 -28 -16 -28 -24 0 -8 -4 -14 -10 -14 -5 0 -10 6 -10 13 0 8 -4 7 -10
-3 -8 -12 -10 -12 -10 -1 0 10 -9 12 -35 8 -30 -5 -35 -3 -35 14 0 16 4 18 18
10 15 -8 18 -5 20 14 2 22 0 22 -33 12 -19 -6 -35 -16 -35 -24 0 -12 -13 -17
-32 -14 -5 0 -8 -4 -8 -11 0 -9 -3 -9 -12 0 -9 9 -8 15 8 28 18 14 18 15 -5 4
-16 -8 -26 -9 -30 -2 -4 7 -12 8 -21 2 -20 -13 -43 -13 -35 0 9 15 -38 7 -55
-9 -9 -9 -15 -10 -18 -3 -2 8 -14 7 -40 -3 l-35 -15 19 22 c27 33 34 36 55 31
14 -4 18 -1 13 10 -3 9 -13 18 -22 20 -10 3 -3 5 15 6 17 0 35 -3 38 -9 3 -5
1 -10 -6 -10 -7 0 -10 -2 -8 -5 3 -2 20 1 38 8 29 11 34 10 47 -8 14 -19 15
-19 20 3 4 12 10 19 15 16 5 -3 9 4 9 15 0 22 -14 28 -25 11 -3 -5 -12 -7 -20
-4 -8 4 -12 11 -8 17 4 6 0 8 -10 4 -10 -3 -17 -2 -17 3 0 6 7 10 15 10 8 0
15 4 15 10 0 5 6 7 14 4 11 -4 16 9 21 55 8 69 11 71 99 48z m910 -2 c-4 -10
-19 -15 -48 -13 -40 1 -40 1 -6 5 19 3 39 9 45 14 13 13 15 11 9 -6z m131 5
c3 -5 -1 -10 -9 -10 -9 0 -16 5 -16 10 0 6 4 10 9 10 6 0 13 -4 16 -10z
m-1810 -10 c-3 -5 -11 -10 -16 -10 -6 0 -7 5 -4 10 3 6 11 10 16 10 6 0 7 -4
4 -10z m325 -4 c0 -8 -8 -13 -17 -11 -10 2 -25 4 -33 5 -10 1 -9 4 5 10 30 13
45 12 45 -4z m860 4 c0 -5 -5 -10 -11 -10 -5 0 -7 5 -4 10 3 6 8 10 11 10 2 0
4 -4 4 -10z m1058 3 c-10 -2 -28 -2 -40 0 -13 2 -5 4 17 4 22 1 32 -1 23 -4z
m145 0 c-7 -2 -19 -2 -25 0 -7 3 -2 5 12 5 14 0 19 -2 13 -5z m-1479 -11 c3
-5 -8 -6 -25 -4 -16 2 -29 6 -29 8 0 8 49 4 54 -4z m149 1 c-7 -2 -21 -2 -30
0 -10 3 -4 5 12 5 17 0 24 -2 18 -5z m480 0 c-7 -2 -21 -2 -30 0 -10 3 -4 5
12 5 17 0 24 -2 18 -5z m-2100 -10 c-7 -2 -19 -2 -25 0 -7 3 -2 5 12 5 14 0
19 -2 13 -5z m2392 -3 c3 -6 -1 -7 -9 -4 -18 7 -21 14 -7 14 6 0 13 -4 16 -10z
m-1428 -6 c-3 -3 -12 -4 -19 -1 -8 3 -5 6 6 6 11 1 17 -2 13 -5z m-127 -14 c0
-5 -7 -7 -15 -4 -8 4 -15 8 -15 10 0 2 7 4 15 4 8 0 15 -4 15 -10z m1690 0
c-8 -5 -19 -10 -25 -10 -5 0 -3 5 5 10 8 5 20 10 25 10 6 0 3 -5 -5 -10z
m-1895 -10 c-4 -6 3 -10 14 -10 12 0 21 -4 21 -10 0 -5 -4 -10 -10 -10 -5 0
-10 -7 -10 -16 0 -11 -5 -14 -16 -10 -12 4 -15 2 -10 -9 3 -8 1 -15 -5 -15 -6
0 -8 -4 -4 -9 13 -22 -71 -46 -91 -27 -20 19 16 79 42 69 8 -3 14 -1 14 5 0 5
-9 12 -20 15 -41 11 -22 32 30 34 31 1 48 -2 45 -7z m500 -12 c6 -6 4 -7 -7
-3 -11 5 -20 2 -23 -7 -6 -15 -45 -22 -45 -7 0 5 7 9 15 9 18 0 20 16 3 24 -7
3 1 3 17 -1 17 -3 35 -10 40 -15z m392 16 c-3 -3 -12 -4 -19 -1 -8 3 -5 6 6 6
11 1 17 -2 13 -5z m-2197 -8 c0 -3 -4 -8 -10 -11 -5 -3 -10 -1 -10 4 0 6 5 11
10 11 6 0 10 -2 10 -4z m220 0 c0 -2 -7 -7 -16 -10 -8 -3 -12 -2 -9 4 6 10 25
14 25 6z m100 -5 c-8 -6 -18 -7 -22 -5 -4 3 -8 0 -8 -5 0 -6 -7 -11 -15 -11
-16 0 -20 12 -8 23 3 4 20 7 37 7 23 0 27 -3 16 -9z m89 -14 c-19 -12 -35 -32
-36 -42 -2 -14 -1 -15 4 -5 7 17 43 50 52 49 16 -2 44 -18 33 -18 -23 -2 -2
-21 23 -21 13 0 27 -5 31 -11 3 -6 15 -9 25 -6 11 3 19 0 19 -6 0 -8 4 -7 12
1 7 7 17 12 23 12 5 0 3 -5 -5 -10 -9 -6 -10 -10 -3 -10 6 0 15 5 18 10 8 13
25 13 25 1 0 -6 -13 -18 -29 -27 -17 -10 -27 -22 -24 -28 4 -5 -1 -7 -11 -3
-28 11 -40 -4 -17 -20 12 -8 18 -19 15 -25 -4 -6 0 -14 7 -19 10 -6 10 -9 2
-9 -7 0 -17 10 -24 21 -9 17 -13 19 -20 8 -7 -11 -9 -10 -9 4 0 14 -5 17 -20
12 -12 -4 -20 -2 -20 4 0 11 38 31 85 46 16 5 17 8 5 15 -9 5 -19 5 -27 -2
-11 -9 -56 -6 -103 7 -8 3 -21 1 -29 -4 -11 -7 -11 -13 0 -32 11 -22 11 -23
-5 -10 -9 8 -30 14 -46 13 -17 0 -30 4 -30 9 0 5 3 8 8 8 22 -4 52 2 52 11 0
5 -22 8 -50 6 -27 -2 -50 0 -50 5 0 5 15 9 33 9 24 0 28 3 17 10 -8 5 -23 7
-32 4 -13 -4 -18 0 -18 16 0 15 8 22 30 27 17 3 33 10 36 14 3 5 24 9 46 9
l41 0 -34 -23z m153 6 c10 -9 23 -9 44 -3 l29 10 -32 -3 c-18 -2 -33 0 -33 5
0 14 57 9 69 -6 9 -11 5 -15 -21 -20 -18 -3 -45 -13 -60 -20 -23 -12 -32 -13
-52 -2 -22 11 -23 13 -8 24 10 7 11 10 5 7 -7 -3 -22 0 -32 7 -17 12 -14 14
28 13 27 0 55 -5 63 -12z m372 1 c4 -11 1 -14 -11 -12 -9 2 -18 9 -21 16 -6
18 25 15 32 -4z m556 6 c0 -5 -5 -10 -11 -10 -5 0 -7 5 -4 10 3 6 8 10 11 10
2 0 4 -4 4 -10z m533 -5 c-3 -9 -8 -14 -10 -11 -3 3 -2 9 2 15 9 16 15 13 8
-4z m288 2 c8 -7 18 -20 22 -29 4 -11 17 -18 34 -18 56 0 103 -13 103 -27 0
-12 3 -12 16 1 20 21 41 21 24 1 -10 -12 -9 -15 4 -15 9 0 16 -6 15 -12 -3
-29 2 -36 24 -31 19 4 20 3 4 -7 -9 -6 -22 -8 -28 -5 -6 4 -13 -2 -16 -14 -3
-12 -12 -21 -20 -21 -13 0 -13 3 -3 15 10 12 9 16 -4 21 -13 5 -13 9 7 25 l22
19 -24 -3 c-13 -2 -29 -10 -35 -18 -15 -20 -41 -22 -55 -5 -13 15 -45 11 -36
-5 3 -4 12 -6 20 -2 16 6 19 -5 7 -24 -4 -7 -12 -9 -18 -5 -19 12 -22 37 -8
57 21 29 17 47 -8 43 -18 -2 -22 -9 -20 -30 2 -19 -2 -28 -12 -28 -9 0 -12 7
-9 20 4 15 0 20 -16 20 -25 0 -29 19 -3 21 9 1 20 1 25 0 4 0 7 4 7 9 0 6 -5
10 -11 10 -5 0 -7 5 -4 10 3 6 -5 10 -19 10 -14 0 -28 4 -31 10 -4 6 1 7 11 3
12 -4 15 -3 10 5 -9 15 5 15 25 -1z m259 -2 c0 -8 -4 -15 -10 -15 -5 0 -7 7
-4 15 4 8 8 15 10 15 2 0 4 -7 4 -15z m340 5 c0 -5 -4 -10 -10 -10 -5 0 -10 5
-10 10 0 6 5 10 10 10 6 0 10 -4 10 -10z m43 3 c-7 -2 -19 -2 -25 0 -7 3 -2 5
12 5 14 0 19 -2 13 -5z m104 1 c-3 -3 -12 -4 -19 -1 -8 3 -5 6 6 6 11 1 17 -2
13 -5z m299 -9 c-17 -7 -33 -21 -38 -31 -6 -16 -7 -14 -5 6 3 31 7 35 44 36
l28 1 -29 -12z m-2216 -5 c0 -5 -2 -10 -4 -10 -3 0 -8 5 -11 10 -3 6 -1 10 4
10 6 0 11 -4 11 -10z m2097 4 c-3 -3 -12 -4 -19 -1 -8 3 -5 6 6 6 11 1 17 -2
13 -5z m-1052 -23 c-3 -6 -18 -10 -33 -10 -21 1 -22 2 -7 6 11 3 24 9 29 14
12 11 20 4 11 -10z m45 9 c-8 -5 -19 -10 -25 -10 -5 0 -3 5 5 10 8 5 20 10 25
10 6 0 3 -5 -5 -10z m747 -11 c24 -12 53 -19 63 -16 11 3 18 1 15 -3 -3 -5 -1
-10 5 -12 6 -2 12 -13 15 -26 3 -18 -1 -22 -23 -23 -18 -1 -21 -3 -9 -6 10 -3
17 -12 15 -21 -1 -9 1 -23 5 -29 5 -8 3 -13 -3 -13 -7 0 -9 -8 -5 -20 6 -18 2
-20 -39 -20 -25 0 -47 -4 -50 -9 -4 -5 4 -7 16 -4 19 4 20 3 8 -7 -12 -9 -10
-10 10 -5 31 9 30 9 58 0 12 -4 22 -12 22 -18 0 -6 -3 -7 -6 -4 -4 3 -16 1
-28 -5 -11 -7 -28 -12 -37 -13 -9 0 -24 -6 -33 -14 -13 -11 -22 -12 -34 -4
-10 6 -16 16 -14 22 1 6 -3 11 -8 11 -5 0 -10 4 -10 10 0 5 8 7 18 4 11 -3 9
1 -7 13 -13 9 -37 30 -52 46 l-29 29 22 19 23 18 -32 1 c-18 0 -33 5 -33 11 0
8 -4 8 -15 -1 -8 -6 -19 -9 -25 -5 -5 3 -10 1 -10 -4 0 -6 -10 -11 -23 -11
-18 0 -23 5 -22 22 1 12 7 24 13 26 7 2 10 -2 9 -10 -2 -7 -2 -10 0 -6 3 4 15
3 29 -2 17 -7 24 -6 25 3 1 6 2 19 3 27 0 8 -3 18 -9 22 -5 4 15 8 46 8 30 0
61 -6 68 -12 11 -10 13 -10 7 0 -9 15 6 16 21 1 9 -9 16 -8 28 5 15 14 15 16
1 16 -9 0 -16 4 -16 9 0 5 -8 12 -17 14 -10 3 -14 5 -9 6 5 0 29 -8 53 -20z
m30 15 c-3 -3 -12 -4 -19 -1 -8 3 -5 6 6 6 11 1 17 -2 13 -5z m733 -4 c0 -6 8
-14 18 -17 9 -4 23 -13 30 -20 11 -11 10 -13 -7 -13 -12 0 -21 5 -21 11 0 8
-14 10 -40 6 -22 -3 -38 -1 -34 4 3 5 -3 6 -12 2 -12 -4 -15 -3 -10 5 4 7 18
12 32 12 14 0 22 4 19 10 -3 6 1 10 9 10 9 0 16 -5 16 -10z m-4146 -8 c2 -4
-5 -9 -17 -9 -17 -2 -19 0 -7 7 18 12 18 12 24 2z m175 -8 c10 -9 -10 -15 -59
-19 -49 -3 -80 9 -80 30 0 6 132 -4 139 -11z m97 3 c3 -2 -2 -12 -11 -21 -18
-18 -39 -12 -32 8 4 9 -3 11 -20 8 -19 -4 -24 -1 -18 7 6 12 69 10 81 -2z
m2247 6 c-7 -2 -19 -2 -25 0 -7 3 -2 5 12 5 14 0 19 -2 13 -5z m1463 -8 c-8
-8 -20 -15 -27 -15 -7 0 -4 6 7 15 25 19 40 19 20 0z m-2946 -5 c0 -5 -4 -10
-10 -10 -5 0 -10 5 -10 10 0 6 5 10 10 10 6 0 10 -4 10 -10z m2033 4 c3 -4 0
-16 -8 -27 -11 -15 -12 -24 -3 -34 8 -10 7 -12 -4 -8 -10 4 -24 -4 -36 -20
-20 -26 -21 -26 -32 -5 -9 17 -7 22 14 32 24 10 24 12 8 25 -15 13 -15 13 7 7
18 -4 22 -3 16 7 -6 9 -4 11 8 6 9 -3 19 -2 22 3 3 5 -3 11 -12 13 -14 4 -15
5 -2 6 9 0 19 -2 22 -5z m975 -1 c12 10 14 9 10 -3 -2 -8 -16 -15 -30 -16 -19
-1 -25 3 -21 13 4 10 9 11 16 4 7 -7 15 -7 25 2z m-2774 -18 c17 -13 18 -15 3
-15 -9 0 -17 5 -17 10 0 6 -12 2 -27 -7 -25 -16 -26 -16 -21 -1 4 9 2 19 -5
22 -7 2 2 5 18 5 17 0 39 -6 49 -14z m232 6 c-3 -5 10 -11 29 -13 19 -2 35 0
35 5 0 4 5 5 11 1 8 -4 7 -9 -2 -15 -7 -4 -16 -6 -20 -3 -4 2 -5 -4 -2 -14 2
-10 18 -24 36 -32 17 -7 26 -15 19 -18 -7 -2 -18 1 -25 6 -8 7 -18 7 -27 2 -8
-6 -22 -9 -30 -9 -8 0 -5 4 8 9 24 10 30 22 10 19 -28 -3 -48 2 -48 12 0 6 10
8 23 5 12 -3 16 -3 9 0 -6 3 -10 9 -7 14 3 5 -10 7 -29 5 -32 -3 -33 -2 -17
15 17 19 36 27 27 11z m396 -22 c8 -23 15 -29 29 -26 11 3 19 1 19 -4 0 -11
-49 -24 -58 -14 -7 7 -11 75 -4 75 1 0 8 -14 14 -31z m1808 22 c0 -5 -6 -12
-12 -14 -7 -3 -2 -6 12 -6 l24 -1 -22 -15 c-17 -13 -26 -14 -43 -4 -17 9 -19
13 -8 20 10 6 7 9 -11 10 -20 1 -18 3 10 9 19 4 38 8 43 9 4 0 7 -3 7 -8z
m153 2 c-7 -2 -19 -2 -25 0 -7 3 -2 5 12 5 14 0 19 -2 13 -5z m72 -3 c-4 -6 6
-10 22 -10 l28 0 -28 -15 c-15 -8 -34 -12 -41 -9 -18 7 -8 44 11 44 8 0 11 -4
8 -10z m-1322 -15 c-3 -17 -30 -17 -37 0 -4 13 -1 16 17 13 12 -2 21 -7 20
-13z m61 6 c4 -5 -3 -7 -14 -4 -23 6 -26 13 -6 13 8 0 17 -4 20 -9z m466 2 c0
-5 -5 -15 -10 -23 -8 -12 -10 -11 -10 8 0 12 5 22 10 22 6 0 10 -3 10 -7z
m475 -3 c-3 -5 -16 -11 -28 -11 -17 -1 -18 -2 -4 -6 19 -5 24 -43 6 -43 -8 0
-8 -4 0 -14 9 -11 6 -15 -14 -18 -14 -3 -25 -2 -25 3 0 4 -3 15 -7 25 -4 11
-3 15 5 10 6 -3 13 -2 17 4 3 5 -3 10 -15 10 -12 0 -19 4 -16 9 3 5 -1 11 -9
15 -33 12 -12 26 41 26 34 0 53 -4 49 -10z m-3452 -20 c-3 -11 0 -20 6 -20 6
0 11 5 11 10 0 6 9 10 20 10 27 0 25 -18 -4 -31 -20 -9 -27 -8 -44 9 -15 15
-17 23 -9 31 17 17 26 13 20 -9z m1187 10 c0 -5 -4 -10 -10 -10 -5 0 -10 5
-10 10 0 6 5 10 10 10 6 0 10 -4 10 -10z m720 0 c0 -13 -11 -13 -30 0 -12 8
-11 10 8 10 12 0 22 -4 22 -10z m1124 -6 c4 -9 5 -19 3 -21 -8 -8 -37 10 -37
23 0 19 26 18 34 -2z m635 9 c8 8 11 7 11 -5 0 -9 6 -18 13 -21 6 -2 0 -4 -15
-4 -16 0 -28 4 -28 8 0 5 -11 7 -25 5 -14 -3 -25 -1 -25 3 0 15 13 20 35 11
14 -5 26 -5 34 3z m-2429 -37 c-14 -14 -22 -2 -14 18 5 14 9 15 15 4 4 -7 4
-17 -1 -22z m41 11 c-13 -13 -26 -3 -16 12 3 6 11 8 17 5 6 -4 6 -10 -1 -17z
m-1131 0 c0 -7 -9 -13 -20 -13 -22 0 -27 12 -7 19 21 9 27 8 27 -6z m944 -20
c6 -4 -1 -5 -16 -1 -16 3 -28 2 -28 -3 0 -5 -7 -10 -15 -10 -8 0 -15 4 -15 9
0 4 5 8 11 8 6 0 18 7 27 16 13 14 17 14 21 3 2 -8 9 -18 15 -22z m493 27 c-3
-3 -12 -4 -19 -1 -8 3 -5 6 6 6 11 1 17 -2 13 -5z m40 0 c-3 -3 -12 -4 -19 -1
-8 3 -5 6 6 6 11 1 17 -2 13 -5z m1339 -92 c4 -41 3 -62 -4 -62 -15 0 -24 18
-11 22 5 2 -2 15 -17 28 -15 14 -24 19 -20 13 4 -7 2 -13 -3 -13 -6 0 -11 9
-11 21 0 11 4 18 9 14 5 -3 12 -1 16 5 3 5 -1 10 -9 10 -8 0 -18 4 -21 10 -3
6 1 7 9 4 12 -5 16 1 16 20 0 26 1 26 19 9 14 -13 22 -38 27 -81z m961 92 c-3
-3 -12 -4 -19 -1 -8 3 -5 6 6 6 11 1 17 -2 13 -5z m-1387 -44 c-7 -5 -9 -13
-5 -21 5 -8 -1 -6 -12 4 -11 9 -22 14 -26 11 -3 -3 -3 5 1 18 5 18 7 19 10 6
2 -10 8 -18 13 -18 6 0 7 9 3 22 -6 21 -6 21 11 4 14 -14 15 -20 5 -26z m1260
30 c-8 -5 -19 -10 -25 -10 -5 0 -3 5 5 10 8 5 20 10 25 10 6 0 3 -5 -5 -10z
m-65 -18 c-3 -3 -11 0 -18 7 -9 10 -8 11 6 5 10 -3 15 -9 12 -12z m-3635 -23
c0 -5 -23 -9 -50 -8 -29 1 -46 6 -38 10 6 4 26 6 43 3 16 -2 24 -2 17 2 -6 3
-9 10 -6 15 6 11 34 -7 34 -22z m240 17 c0 -10 -7 -12 -22 -8 -21 5 -21 6 -2
13 10 4 20 8 22 8 1 1 2 -5 2 -13z m230 4 c0 -5 -5 -10 -11 -10 -5 0 -7 5 -4
10 3 6 8 10 11 10 2 0 4 -4 4 -10z m3222 -13 c-24 -25 -21 -39 6 -31 10 3 4
-2 -13 -12 -16 -9 -38 -23 -48 -32 -9 -8 -20 -12 -24 -9 -3 4 -1 7 5 7 7 0 12
5 12 11 0 5 -5 7 -11 4 -5 -4 -21 -4 -34 -1 -17 4 -22 11 -18 23 5 13 1 15
-23 9 l-29 -6 29 16 c15 9 37 13 49 10 11 -3 32 1 46 8 14 7 31 11 38 9 6 -2
14 1 18 6 3 6 9 11 12 11 4 0 -3 -10 -15 -23z m68 -3 c0 -2 -9 -4 -21 -4 -11
0 -18 4 -14 10 5 8 35 3 35 -6z m340 -8 c0 -1 -14 0 -31 2 -21 3 -27 7 -18 13
11 6 49 -5 49 -15z m-3915 4 c-3 -5 -10 -10 -16 -10 -5 0 -9 5 -9 10 0 6 7 10
16 10 8 0 12 -4 9 -10z m255 -3 c0 -8 -7 -14 -15 -14 -11 0 -12 4 -4 14 6 7
13 13 15 13 2 0 4 -6 4 -13z m94 1 c-3 -4 -12 -8 -21 -8 -10 0 -13 -6 -9 -16
5 -13 2 -15 -13 -11 -11 3 -21 1 -23 -3 -2 -4 -14 -10 -28 -14 -24 -7 -24 -6
5 19 31 27 59 42 81 42 7 0 11 -4 8 -9z m376 4 c0 -4 -12 -15 -27 -24 l-28
-17 25 -10 25 -11 -25 2 c-86 4 -128 -2 -133 -21 -4 -16 0 -19 27 -16 17 1 23
0 14 -2 -10 -2 -18 -9 -18 -14 0 -6 -8 -5 -20 1 -11 6 -20 8 -20 4 0 -3 -6 -2
-12 3 -7 5 -23 8 -35 7 -19 -1 -21 2 -12 17 10 20 39 26 39 8 0 -6 15 -2 33 9
19 13 42 18 58 15 19 -3 33 3 57 26 29 30 52 40 52 23z m755 -2 c3 -6 -4 -10
-17 -10 -18 0 -20 2 -8 10 19 12 18 12 25 0z m-828 -6 c-3 -3 -12 -4 -19 -1
-8 3 -5 6 6 6 11 1 17 -2 13 -5z m1656 -1 c-7 -2 -21 -2 -30 0 -10 3 -4 5 12
5 17 0 24 -2 18 -5z m132 -5 c5 4 5 1 1 -5 -4 -7 -14 -13 -22 -13 -8 0 -14 6
-15 13 0 9 -2 9 -5 0 -3 -7 -13 -9 -21 -6 -14 6 -14 7 3 13 10 4 26 4 35 -1 9
-5 20 -5 24 -1z m-2025 -2 c0 -3 -4 -8 -10 -11 -5 -3 -10 -1 -10 4 0 6 5 11
10 11 6 0 10 -2 10 -4z m865 -6 c3 -6 -4 -10 -17 -10 -18 0 -20 2 -8 10 19 12
18 12 25 0z m75 6 c0 -2 -7 -7 -16 -10 -8 -3 -12 -2 -9 4 6 10 25 14 25 6z
m1390 0 c0 -3 -4 -8 -10 -11 -5 -3 -10 -1 -10 4 0 6 5 11 10 11 6 0 10 -2 10
-4z m348 -8 c-3 -7 -11 -13 -18 -13 -7 0 -15 6 -17 13 -3 7 4 12 17 12 13 0
20 -5 18 -12z m793 -6 c-7 -2 -18 1 -23 6 -8 8 -4 9 13 5 13 -4 18 -8 10 -11z
m-4034 -33 c-13 -3 -23 0 -25 7 -2 7 -10 10 -18 7 -8 -3 -14 0 -14 5 0 17 54
19 67 2 9 -12 8 -16 -10 -21z m578 21 c-3 -5 -12 -10 -18 -10 -7 0 -6 4 3 10
19 12 23 12 15 0z m1068 -6 c-1 -5 -12 -12 -25 -16 -13 -4 3 -6 36 -3 47 3 55
1 42 -8 -14 -10 -12 -12 14 -11 53 2 56 4 40 14 -13 8 -12 10 3 10 9 0 17 -7
17 -15 0 -8 -1 -15 -2 -15 -41 -8 -148 -9 -148 -2 0 5 -10 12 -22 15 -21 6
-22 5 -5 -7 16 -13 16 -14 -8 -20 -14 -4 -25 -11 -25 -17 0 -6 4 -8 9 -5 5 4
8 -1 7 -11 -2 -9 -11 -19 -20 -23 -10 -3 -18 -10 -19 -15 -3 -15 -78 -11 -90
4 -9 12 -9 13 1 7 7 -4 26 -1 42 7 16 9 39 13 50 10 22 -6 23 -3 14 21 -3 9
-10 14 -14 11 -5 -3 -11 -1 -15 4 -4 7 -15 7 -30 1 -14 -5 -25 -6 -25 -1 0 8
41 24 65 25 6 1 19 10 30 22 11 12 27 23 35 26 21 7 45 3 43 -8z m887 7 c0 -5
10 -7 22 -3 13 3 19 1 15 -5 -9 -14 -49 -11 -55 5 -2 6 1 12 7 12 6 0 11 -4
11 -9z m415 -1 c3 -5 2 -10 -4 -10 -5 0 -13 5 -16 10 -3 6 -2 10 4 10 5 0 13
-4 16 -10z m-2795 -10 c0 -5 -8 -10 -17 -10 -15 0 -16 2 -3 10 19 12 20 12 20
0z m1251 1 c-12 -8 -51 -4 -51 5 0 2 15 4 33 4 22 0 28 -3 18 -9z m477 -2 c41
-14 33 -26 -13 -23 -29 3 -36 0 -31 -11 3 -8 1 -15 -3 -15 -5 0 -12 7 -15 16
-4 9 -13 14 -21 10 -8 -3 -15 -1 -15 4 0 6 11 10 24 10 14 0 28 5 31 10 8 12
5 12 43 -1z m1357 -7 c-32 -7 -49 -23 -33 -34 10 -8 10 -9 -1 -6 -8 3 -16 9
-18 14 -4 13 49 44 62 36 5 -4 1 -8 -10 -10z m605 8 c-13 -8 -12 -10 3 -10 9
0 17 -4 17 -9 0 -4 -10 -6 -23 -4 -29 6 -31 33 -3 33 17 0 18 -2 6 -10z
m-3315 -28 c1 -15 -4 -22 -17 -22 -10 0 -18 7 -18 15 0 8 5 15 11 15 5 0 7 5
3 11 -4 7 -1 10 6 7 8 -2 14 -14 15 -26z m3364 21 c-3 -21 2 -33 12 -27 7 4
10 1 7 -6 -5 -17 -56 -19 -69 -4 -8 9 -5 11 10 7 16 -4 21 -1 21 16 0 11 5 21
10 21 6 0 9 -3 9 -7z m89 -20 c-9 -8 -24 -13 -32 -10 -23 9 -20 30 3 22 11 -3
22 -1 26 5 4 6 10 9 13 5 3 -3 -1 -13 -10 -22z m52 23 c0 -3 -4 -8 -10 -11 -5
-3 -10 -1 -10 4 0 6 5 11 10 11 6 0 10 -2 10 -4z m-2603 -12 c-3 -3 -12 -4
-19 -1 -8 3 -5 6 6 6 11 1 17 -2 13 -5z m1531 -11 c8 -8 9 -13 3 -13 -6 0 -11
-9 -11 -20 0 -11 5 -20 10 -20 6 0 10 -9 10 -20 0 -17 -6 -20 -45 -18 -25 1
-42 4 -37 7 10 7 26 43 24 54 -1 4 5 7 13 7 8 0 15 5 15 10 0 6 -20 9 -45 8
-34 -1 -42 -4 -35 -13 8 -9 6 -14 -5 -19 -11 -4 -15 2 -15 22 0 27 2 28 53 28
28 -1 58 -6 65 -13z m-3058 -2 c0 -9 -24 -21 -41 -21 -5 0 -9 5 -9 11 0 5 4 8
9 4 5 -3 12 -1 16 5 8 12 25 13 25 1z m120 5 c0 -11 -33 -36 -47 -36 -11 0 -9
6 8 20 23 18 39 25 39 16z m204 -12 c4 -9 11 -12 18 -8 10 6 10 5 1 -7 -10
-13 -20 -14 -57 -5 -25 6 -42 14 -39 19 2 4 14 5 25 1 11 -3 18 -2 15 3 -3 5
3 9 13 10 10 1 21 -5 24 -13z m250 7 c3 -5 0 -11 -7 -14 -8 -3 -14 1 -14 9 0
16 13 19 21 5z m884 4 c-11 -11 -60 -16 -53 -5 3 5 18 10 32 10 15 0 24 -2 21
-5z m98 -17 c-9 -5 -21 -6 -28 -2 -8 5 -5 10 8 14 25 10 41 0 20 -12z m536 6
c-12 -8 -22 -22 -22 -30 0 -8 -4 -14 -10 -14 -5 0 -10 4 -10 8 0 13 40 52 53
52 6 0 1 -7 -11 -16z m308 6 c0 -5 -4 -10 -9 -10 -6 0 -13 5 -16 10 -3 6 1 10
9 10 9 0 16 -4 16 -10z m1155 0 c-3 -5 -13 -10 -21 -10 -8 0 -14 5 -14 10 0 6
9 10 21 10 11 0 17 -4 14 -10z m278 3 c-7 -2 -19 -2 -25 0 -7 3 -2 5 12 5 14
0 19 -2 13 -5z m-3384 -17 c-2 -2 -15 -9 -29 -16 -23 -12 -24 -12 -11 3 7 10
20 17 29 17 8 0 13 -2 11 -4z m2201 -11 c0 -8 -8 -15 -17 -14 -11 0 -13 3 -5
6 6 2 10 9 6 14 -3 5 0 9 5 9 6 0 11 -7 11 -15z m723 8 c-7 -2 -19 -2 -25 0
-7 3 -2 5 12 5 14 0 19 -2 13 -5z m727 -8 c0 -8 -4 -15 -10 -15 -5 0 -7 7 -4
15 4 8 8 15 10 15 2 0 4 -7 4 -15z m-2783 -1 c-3 -3 -12 -4 -19 -1 -8 3 -5 6
6 6 11 1 17 -2 13 -5z m2338 -4 c-3 -5 -13 -10 -21 -10 -8 0 -14 5 -14 10 0 6
9 10 21 10 11 0 17 -4 14 -10z m215 0 c0 -5 -7 -10 -16 -10 -8 0 -12 5 -9 10
3 6 10 10 16 10 5 0 9 -4 9 -10z m183 3 c-7 -2 -19 -2 -25 0 -7 3 -2 5 12 5
14 0 19 -2 13 -5z m-4028 -13 c3 -5 -3 -10 -14 -10 -12 0 -21 5 -21 10 0 6 6
10 14 10 8 0 18 -4 21 -10z m632 -4 c4 -5 0 -6 -9 -3 -10 4 -18 2 -18 -4 0 -6
10 -13 22 -17 21 -5 21 -6 3 -12 -12 -4 -25 -1 -33 7 -7 7 -25 13 -38 13 -17
0 -23 4 -18 12 5 8 2 9 -9 5 -10 -3 -17 -3 -17 1 0 11 107 9 117 -2z m240 7
c-18 -5 -18 -5 0 -19 16 -13 15 -13 -11 -4 -16 6 -35 9 -43 6 -7 -3 -13 -3
-13 0 0 8 43 23 65 22 18 0 18 -1 2 -5z m231 -7 c-7 -8 -15 -12 -17 -10 -2 2
-10 -4 -18 -14 -11 -15 -12 -13 -2 11 7 16 20 27 31 27 16 0 17 -2 6 -14z
m229 8 c-3 -3 -12 -4 -19 -1 -8 3 -5 6 6 6 11 1 17 -2 13 -5z m676 -49 c19 2
40 5 45 9 6 4 8 -3 5 -16 -4 -19 -3 -20 6 -8 9 12 11 10 11 -12 0 -25 -2 -26
-40 -21 -26 4 -40 2 -40 -6 0 -13 -27 -15 -32 -2 -5 13 -188 20 -188 7 0 -6
-5 -4 -10 4 -7 10 -12 11 -17 4 -11 -15 -41 -25 -48 -14 -3 5 0 10 7 13 7 2 2
2 -11 0 -14 -2 -30 -11 -36 -19 -9 -13 -11 -12 -12 4 -2 31 32 39 172 41 123
2 145 5 133 16 -8 9 -89 12 -94 3 -3 -4 -11 -8 -17 -8 -7 0 -4 5 6 11 9 5 17
18 17 27 0 10 3 13 8 6 4 -6 17 -13 29 -16 18 -5 21 -2 18 16 -4 18 0 17 24
-10 23 -25 35 -31 64 -29z m1459 33 c-7 -7 -12 -8 -12 -2 0 6 3 14 7 17 3 4 9
5 12 2 2 -3 -1 -11 -7 -17z m688 18 c0 -9 -30 -14 -35 -6 -4 6 3 10 14 10 12
0 21 -2 21 -4z m-3480 -16 c0 -5 -2 -10 -4 -10 -3 0 -8 5 -11 10 -3 6 -1 10 4
10 6 0 11 -4 11 -10z m327 4 c-3 -3 -12 -4 -19 -1 -8 3 -5 6 6 6 11 1 17 -2
13 -5z m253 2 c0 -2 -16 -6 -35 -8 -19 -2 -35 0 -35 4 0 4 16 8 35 8 19 0 35
-2 35 -4z m2330 0 c0 -3 -4 -8 -10 -11 -5 -3 -10 -1 -10 4 0 6 5 11 10 11 6 0
10 -2 10 -4z m130 -6 c0 -5 -5 -10 -11 -10 -5 0 -7 5 -4 10 3 6 8 10 11 10 2
0 4 -4 4 -10z m315 0 c3 -6 -1 -7 -9 -4 -18 7 -21 14 -7 14 6 0 13 -4 16 -10z
m-2595 -10 c8 -5 11 -12 7 -16 -3 -4 -12 -2 -20 4 -8 7 -18 7 -27 2 -24 -15
-36 -11 -14 5 22 17 34 18 54 5z m1847 -6 c-3 -3 -12 -4 -19 -1 -8 3 -5 6 6 6
11 1 17 -2 13 -5z m733 2 c0 -2 -7 -7 -16 -10 -8 -3 -12 -2 -9 4 6 10 25 14
25 6z m-4150 -17 c0 -5 12 -4 27 2 15 5 39 7 53 3 14 -4 45 -8 70 -10 25 -1
49 -3 53 -3 5 -1 6 -5 3 -10 -3 -4 5 -6 17 -4 14 3 30 -3 41 -16 11 -12 14
-21 7 -21 -6 0 -14 7 -17 15 -4 8 -11 15 -16 15 -6 0 -5 -6 2 -15 13 -16 6
-35 -14 -35 -7 0 -26 -11 -42 -25 -22 -19 -37 -24 -69 -21 -22 2 -45 -1 -52
-6 -6 -5 -40 -11 -74 -14 -35 -3 -66 -7 -71 -10 -4 -3 -8 2 -8 10 0 17 -61 33
-81 21 -7 -5 -10 -3 -7 6 2 7 15 16 29 20 13 4 20 8 14 9 -5 1 -1 5 10 10 19
8 19 8 -5 18 -14 6 -20 11 -15 12 6 1 1 5 -10 10 -19 7 -19 8 -1 15 11 5 21 3
27 -6 5 -8 9 -9 9 -4 0 17 47 40 84 41 20 1 36 -2 36 -7z m630 3 c0 -5 -12
-14 -27 -21 -28 -13 -28 -13 -9 8 20 22 36 27 36 13z m94 -1 c3 -5 -3 -11 -14
-14 -20 -5 -26 3 -13 16 9 10 21 9 27 -2z m141 -1 c-3 -5 -12 -10 -18 -10 -7
0 -6 4 3 10 19 12 23 12 15 0z m105 0 c0 -5 -4 -10 -10 -10 -5 0 -10 5 -10 10
0 6 5 10 10 10 6 0 10 -4 10 -10z m650 -6 c0 -2 -7 -4 -15 -4 -8 0 -15 4 -15
10 0 5 7 7 15 4 8 -4 15 -8 15 -10z m745 6 c3 -5 13 -6 23 -3 9 3 14 3 11 -1
-8 -9 33 -54 44 -49 4 2 7 2 7 -1 0 -2 -13 -11 -30 -19 -20 -10 -29 -11 -27
-4 1 8 -25 12 -86 12 -48 0 -87 4 -87 9 0 4 45 7 100 4 55 -2 100 -1 100 3 0
8 -51 31 -57 25 -7 -7 -32 18 -26 27 6 10 21 9 28 -3z m1015 -6 c0 -2 -16 -4
-35 -4 -19 0 -35 4 -35 8 0 4 16 6 35 4 19 -2 35 -6 35 -8z m-2216 -20 c9 -8
16 -11 16 -5 0 6 9 11 21 11 13 0 18 -4 13 -12 -5 -7 -2 -9 7 -6 8 3 25 8 39
12 19 5 16 2 -10 -13 -38 -22 -51 -25 -49 -13 3 19 -2 26 -10 13 -7 -12 -13
-12 -24 -3 -7 7 -17 9 -20 5 -4 -3 -7 1 -7 10 0 21 4 21 24 1z m-854 -3 c0 -6
-4 -13 -10 -16 -5 -3 -10 1 -10 9 0 9 5 16 10 16 6 0 10 -4 10 -9z m480 -7 c0
-13 -3 -14 -14 -5 -7 6 -22 9 -32 5 -16 -5 -16 -4 -4 5 22 16 50 13 50 -5z
m-440 2 c0 -2 -7 -7 -16 -10 -8 -3 -12 -2 -9 4 6 10 25 14 25 6z m700 -6 c0
-5 -8 -10 -17 -10 -15 0 -16 2 -3 10 19 12 20 12 20 0z m680 6 c0 -3 -4 -8
-10 -11 -5 -3 -10 -1 -10 4 0 6 5 11 10 11 6 0 10 -2 10 -4z m-853 -12 c-3 -3
-12 -4 -19 -1 -8 3 -5 6 6 6 11 1 17 -2 13 -5z m93 -9 c0 -8 -8 -15 -17 -14
-11 0 -13 3 -5 6 6 2 10 9 6 14 -3 5 0 9 5 9 6 0 11 -7 11 -15z m3330 5 c0 -5
-8 -10 -17 -10 -15 0 -16 2 -3 10 19 12 20 12 20 0z m-1420 -21 c0 -5 -7 -9
-15 -9 -8 0 -15 7 -15 15 0 9 6 12 15 9 8 -4 15 -10 15 -15z m255 11 c3 -5 1
-10 -4 -10 -6 0 -11 5 -11 10 0 6 2 10 4 10 3 0 8 -4 11 -10z m302 4 c-1 0
-15 -8 -31 -18 -16 -10 -25 -13 -21 -6 5 8 -4 11 -34 9 -22 -2 -45 1 -50 6 -7
7 17 10 64 10 40 0 73 0 72 -1z m143 -9 c-7 -9 -15 -13 -19 -10 -3 3 1 10 9
15 21 14 24 12 10 -5z m590 5 c0 -5 -4 -10 -10 -10 -5 0 -10 5 -10 10 0 6 5
10 10 10 6 0 10 -4 10 -10z m-3146 -9 c3 -4 -6 -6 -19 -3 -14 2 -25 6 -25 8 0
8 39 4 44 -5z m669 -15 c-21 -28 -28 -26 -18 3 3 12 13 21 21 21 12 0 12 -4
-3 -24z m382 13 c-4 -5 -16 -9 -28 -9 -17 0 -19 -2 -8 -9 8 -5 50 -8 93 -6 53
2 76 0 71 -7 -4 -8 7 -9 36 -4 26 4 72 0 117 -9 41 -8 97 -16 125 -16 27 -1
49 -6 49 -10 0 -5 6 -9 14 -9 8 0 18 -5 21 -11 5 -7 -8 -9 -41 -6 -27 3 -51 6
-54 7 -3 1 -14 2 -25 1 -17 -2 -17 0 -5 8 13 9 12 11 -4 11 -12 0 -16 -5 -12
-15 7 -18 11 -18 -63 1 -55 13 -63 14 -76 0 -14 -13 -10 -15 37 -15 96 0 138
-3 138 -12 0 -17 -20 -18 -60 -4 -44 15 -67 12 -40 -6 16 -10 14 -10 -85 12
-61 13 -344 13 -380 -1 -17 -7 -24 -7 -20 0 3 6 12 10 18 10 7 0 26 7 42 16
17 9 41 20 55 24 21 7 22 8 5 9 -15 1 -16 4 -7 10 9 5 2 8 -20 8 -27 1 -29 -1
-13 -7 15 -7 10 -9 -21 -9 -23 -1 -61 -8 -85 -17 -24 -8 -51 -17 -60 -19 -8
-2 -32 -10 -53 -19 -21 -9 -41 -16 -45 -16 -9 0 81 51 99 56 50 13 176 59 178
65 2 4 28 8 58 8 31 0 52 -4 49 -10z m-917 -7 c9 -6 5 -12 -15 -22 -16 -8 -32
-16 -37 -19 -5 -2 -6 1 -2 7 4 7 2 12 -3 12 -18 0 -12 18 7 23 28 7 36 7 50
-1z m146 -1 c4 -5 -3 -7 -14 -4 -23 6 -26 13 -6 13 8 0 17 -4 20 -9z m1162 1
c-2 -4 10 -14 27 -22 26 -12 28 -15 13 -18 -10 -2 -22 1 -26 7 -3 7 -15 9 -24
5 -11 -4 -21 -1 -27 7 -5 10 -3 16 9 21 24 9 34 9 28 0z m754 -4 c0 -4 -4 -8
-9 -8 -5 0 -17 -3 -27 -7 -11 -4 -15 -3 -11 4 4 6 1 13 -5 15 -7 3 2 5 20 5
17 0 32 -4 32 -9z m-2313 -4 c-3 -3 -12 -4 -19 -1 -8 3 -5 6 6 6 11 1 17 -2
13 -5z m2013 -5 c0 -7 8 -18 18 -25 9 -7 14 -14 10 -14 -4 0 -19 11 -34 25
-20 19 -23 25 -10 25 9 0 16 -5 16 -11z m175 -9 c19 -8 19 -9 -2 -9 -12 -1
-25 4 -28 9 -7 12 2 12 30 0z m475 -8 c0 -5 -7 -9 -15 -9 -8 0 -15 4 -15 9 0
4 7 8 15 8 8 0 15 -4 15 -8z m-2483 -8 c-3 -3 -12 -4 -19 -1 -8 3 -5 6 6 6 11
1 17 -2 13 -5z m2288 -4 c3 -5 1 -10 -4 -10 -6 0 -11 5 -11 10 0 6 2 10 4 10
3 0 8 -4 11 -10z m552 4 c-3 -3 -12 -4 -19 -1 -8 3 -5 6 6 6 11 1 17 -2 13 -5z
m-323 -19 c-4 -8 -10 -12 -15 -9 -11 6 -2 24 11 24 5 0 7 -7 4 -15z m-2237 -1
c-3 -3 -12 -4 -19 -1 -8 3 -5 6 6 6 11 1 17 -2 13 -5z m1223 -4 c0 -5 6 -10
14 -10 7 0 16 -8 19 -19 3 -14 0 -17 -14 -14 -10 3 -16 9 -14 14 3 4 -7 15
-22 23 -26 14 -27 15 -5 16 12 0 22 -4 22 -10z m723 3 c-7 -2 -13 -9 -13 -14
0 -4 6 -6 13 -3 8 3 14 -1 14 -9 0 -11 -7 -12 -34 -4 -18 6 -33 14 -33 19 0 5
4 7 8 4 4 -2 14 -1 22 5 8 5 20 8 25 8 6 0 4 -3 -2 -6z m962 -3 c-3 -5 -10
-10 -16 -10 -5 0 -9 5 -9 10 0 6 7 10 16 10 8 0 12 -4 9 -10z m-3501 -15 c-4
-8 -14 -15 -23 -14 -10 0 -11 2 -3 6 6 2 10 9 6 14 -3 5 2 9 10 9 10 0 13 -6
10 -15z m2106 5 c0 -5 -5 -10 -11 -10 -5 0 -7 5 -4 10 3 6 8 10 11 10 2 0 4
-4 4 -10z m585 0 c3 -5 -1 -10 -10 -10 -9 0 -13 5 -10 10 3 6 8 10 10 10 2 0
7 -4 10 -10z m460 0 c-3 -5 -12 -10 -18 -10 -7 0 -6 4 3 10 19 12 23 12 15 0z
m85 5 c0 -2 -10 -9 -22 -15 -22 -11 -22 -10 -4 4 21 17 26 19 26 11z m227 -1
c-3 -3 -12 -4 -19 -1 -8 3 -5 6 6 6 11 1 17 -2 13 -5z m-572 -15 c9 -13 3 -19
-24 -24 -16 -3 -21 1 -21 16 0 21 34 27 45 8z m-2865 -9 c0 -5 -5 -10 -11 -10
-5 0 -7 5 -4 10 3 6 8 10 11 10 2 0 4 -4 4 -10z m-960 -10 c0 -5 -5 -10 -11
-10 -5 0 -7 5 -4 10 3 6 8 10 11 10 2 0 4 -4 4 -10z m3525 0 c-3 -5 -11 -10
-16 -10 -6 0 -7 5 -4 10 3 6 11 10 16 10 6 0 7 -4 4 -10z m-2695 -10 c0 -5 -5
-10 -11 -10 -5 0 -7 5 -4 10 3 6 8 10 11 10 2 0 4 -4 4 -10z m3450 -6 c0 -8
-5 -12 -10 -9 -6 4 -8 11 -5 16 9 14 15 11 15 -7z m-1140 2 c0 -2 -7 -6 -15
-10 -8 -3 -15 -1 -15 4 0 6 7 10 15 10 8 0 15 -2 15 -4z m-3110 -12 c0 -3 -5
-14 -10 -25 -12 -21 -1 -26 17 -8 8 8 16 8 30 0 17 -10 17 -10 0 -11 -9 0 -26
-6 -37 -12 -16 -11 -22 -9 -34 7 -13 18 -13 22 1 38 16 17 33 23 33 11z m2687
-10 c-3 -3 -12 -4 -19 -1 -8 3 -5 6 6 6 11 1 17 -2 13 -5z m388 -4 c3 -5 2
-10 -4 -10 -5 0 -13 5 -16 10 -3 6 -2 10 4 10 5 0 13 -4 16 -10z m-15 -20 c15
-11 30 -16 34 -13 4 4 4 0 1 -10 -6 -14 -9 -15 -22 -2 -8 8 -21 15 -29 15 -8
0 -13 4 -9 9 3 5 -7 12 -22 14 -24 3 -25 4 -5 6 13 0 36 -8 52 -19z m715 0
c-3 -5 -11 -10 -16 -10 -6 0 -7 5 -4 10 3 6 11 10 16 10 6 0 7 -4 4 -10z
m-2894 -14 c-7 -8 -21 -12 -32 -9 -16 5 -18 8 -7 14 7 5 21 9 32 9 15 0 16 -3
7 -14z m373 5 c3 -5 -5 -11 -19 -13 -20 -4 -23 -3 -14 8 13 16 25 18 33 5z
m336 5 c0 -3 -4 -8 -10 -11 -5 -3 -10 -1 -10 4 0 6 5 11 10 11 6 0 10 -2 10
-4z m1211 -16 c13 -10 21 -19 17 -20 -14 0 -58 23 -58 32 0 14 16 9 41 -12z
m499 10 c0 -5 -2 -10 -4 -10 -3 0 -8 5 -11 10 -3 6 -1 10 4 10 6 0 11 -4 11
-10z m55 0 c-3 -5 -13 -10 -21 -10 -8 0 -14 5 -14 10 0 6 9 10 21 10 11 0 17
-4 14 -10z m-1868 -13 c4 -6 1 -7 -6 -3 -7 5 -21 0 -32 -10 -16 -14 -20 -15
-17 -4 2 10 -5 15 -24 15 -14 -1 -24 3 -22 7 7 11 93 7 101 -5z m-157 -13
c-69 -23 -80 -24 -80 -10 0 9 9 12 25 8 15 -2 25 0 25 7 0 6 16 11 38 10 l37
0 -45 -15z m2358 -338 l2 -337 -137 1 c-181 1 -203 5 -203 36 0 13 -4 24 -10
24 -5 0 -10 5 -10 12 0 29 -58 130 -116 201 -35 44 -64 83 -64 88 0 5 -5 9
-11 9 -5 0 -7 -4 -4 -10 3 -5 1 -10 -5 -10 -7 0 -10 6 -7 14 3 8 0 20 -8 26
-15 13 -95 144 -95 157 0 4 -20 30 -45 57 -25 27 -44 50 -43 51 2 2 165 6 363
10 198 4 362 9 364 11 22 21 26 -27 29 -340z m-3808 330 c0 -3 -4 -8 -10 -11
-5 -3 -10 -1 -10 4 0 6 5 11 10 11 6 0 10 -2 10 -4z m130 -11 c0 -2 -3 -10 -6
-19 -7 -17 -34 -22 -34 -6 0 5 -7 7 -15 4 -17 -7 -20 7 -4 23 8 8 59 7 59 -2z
m2012 10 c3 -3 81 -7 173 -10 176 -5 218 -10 194 -26 -8 -5 -9 -9 -3 -9 7 0
15 -7 18 -16 6 -15 4 -15 -18 0 -35 22 -46 20 -16 -4 14 -11 20 -20 15 -20 -6
0 -21 10 -35 23 -18 16 -40 24 -75 26 -27 1 -54 6 -60 9 -5 4 -71 6 -145 5
-74 0 -120 2 -102 4 17 2 32 8 32 14 0 10 13 12 22 4z m-907 -15 c-27 -12 -43
-12 -25 0 8 5 22 9 30 9 10 0 8 -3 -5 -9z m125 6 c0 -2 -7 -7 -16 -10 -8 -3
-12 -2 -9 4 6 10 25 14 25 6z m-610 -18 c0 -4 -7 -8 -15 -8 -8 0 -15 4 -15 8
0 5 7 9 15 9 8 0 15 -4 15 -9z m50 2 c0 -5 -4 -10 -10 -10 -5 0 -10 5 -10 10
0 6 5 10 10 10 6 0 10 -4 10 -10z m160 -13 c0 -6 127 -5 413 6 6 0 50 -1 97
-3 68 -3 53 -5 -80 -10 -193 -8 -785 -12 -779 -5 3 2 66 5 139 6 74 1 143 4
153 8 25 9 57 8 57 -2z m684 -6 c3 -4 -11 -6 -31 -4 -50 5 -55 13 -10 13 20 0
38 -4 41 -9z m501 -1 c8 -13 -15 -13 -35 0 -12 8 -11 10 7 10 12 0 25 -4 28
-10z m86 2 c-11 -4 -11 -6 0 -13 10 -6 8 -9 -9 -9 -13 0 -21 4 -18 9 4 5 0 11
-6 14 -7 2 1 4 17 4 17 0 24 -2 16 -5z m406 2 c-3 -3 -12 -4 -19 -1 -8 3 -5 6
6 6 11 1 17 -2 13 -5z m-2527 -20 c0 -2 -30 -3 -67 -2 l-68 1 55 6 c52 6 80 4
80 -5z m90 0 c0 -2 -16 -4 -36 -4 -19 0 -33 4 -30 8 5 8 66 4 66 -4z m2390
-14 c8 -5 11 -10 5 -10 -5 0 -17 5 -25 10 -8 5 -10 10 -5 10 6 0 17 -5 25 -10z
m-510 -16 c0 -2 -14 -4 -31 -4 -16 0 -28 4 -25 9 5 8 56 3 56 -5z m55 6 c3 -6
-1 -7 -9 -4 -18 7 -21 14 -7 14 6 0 13 -4 16 -10z m-5 -30 c0 -5 -2 -10 -4
-10 -3 0 -8 5 -11 10 -3 6 -1 10 4 10 6 0 11 -4 11 -10z m305 -1 c11 -17 -1
-21 -15 -4 -8 9 -8 15 -2 15 6 0 14 -5 17 -11z m-925 -99 c0 -5 -5 -10 -11
-10 -5 0 -7 5 -4 10 3 6 8 10 11 10 2 0 4 -4 4 -10z m-49 -72 c-16 -16 -35
-27 -41 -23 -5 3 -11 0 -12 -7 0 -7 -2 -17 -2 -23 -3 -24 -18 -36 -31 -25 -8
7 -20 7 -36 1 -13 -6 -17 -10 -9 -11 12 0 12 -2 -2 -10 -11 -7 -25 -7 -42 0
-18 6 -26 6 -26 -1 0 -6 -5 -7 -11 -3 -13 8 38 44 64 44 9 0 17 7 17 16 0 8 4
13 9 9 10 -5 26 12 26 29 0 12 37 24 54 18 10 -4 12 -1 6 8 -6 10 -4 12 8 7
11 -4 17 -1 17 7 0 20 23 26 33 9 6 -10 0 -24 -22 -45z m2 -46 c-2 -10 -10
-19 -18 -19 -10 0 -11 4 -2 19 7 10 15 18 18 18 4 0 5 -8 2 -18z m554 -28 c-3
-3 -12 -4 -19 -1 -8 3 -5 6 6 6 11 1 17 -2 13 -5z m-1438 -69 c2 44 5 55 11
40 5 -11 7 -36 4 -55 -2 -19 -1 -29 2 -22 3 6 21 12 39 12 19 0 37 5 40 10 4
7 13 7 26 0 13 -7 25 -7 38 0 14 7 20 7 23 -2 6 -16 230 -16 236 0 2 7 21 12
43 12 21 0 39 4 39 8 0 13 99 32 163 31 31 -1 57 -3 57 -6 0 -3 -10 -16 -22
-28 -24 -25 -40 -43 -51 -62 -9 -14 1 -43 15 -43 5 0 6 5 2 12 -5 7 -2 9 8 5
11 -4 18 2 22 19 6 23 26 34 26 14 0 -5 -4 -10 -9 -10 -5 0 -8 -33 -7 -72 l1
-73 -365 0 -365 0 -1 110 c0 134 8 187 17 100 l6 -60 2 60z m861 41 c0 -3 -4
-8 -10 -11 -5 -3 -10 -1 -10 4 0 6 5 11 10 11 6 0 10 -2 10 -4z m-45 -46 c3
-5 1 -10 -4 -10 -6 0 -11 5 -11 10 0 6 2 10 4 10 3 0 8 -4 11 -10z m-56 -38
c-1 -15 -2 -15 -6 1 -2 9 -9 14 -15 11 -7 -4 -8 -2 -4 5 10 15 26 4 25 -17z
m-23 -69 c-8 -15 -15 -22 -16 -15 0 17 20 55 27 49 2 -3 -2 -18 -11 -34z m134
-235 c-26 -21 -54 -24 -47 -5 2 6 10 11 16 10 6 -2 11 1 11 5 0 4 9 8 21 8 21
0 21 0 -1 -18z m984 -103 c8 -8 22 -15 30 -15 9 0 16 -5 16 -11 0 -6 -9 -9
-20 -6 -11 3 -20 1 -20 -4 0 -5 14 -9 31 -9 16 0 28 -4 24 -9 -6 -10 46 -51
64 -51 6 0 11 -5 11 -11 0 -7 -7 -8 -17 -4 -111 45 -192 56 -249 35 -42 -16
-39 -5 8 29 34 25 50 31 75 27 25 -3 31 -1 26 10 -3 8 -9 14 -14 14 -5 0 -9 5
-9 10 0 15 27 12 44 -5z m196 -85 c0 -5 -7 -10 -15 -10 -8 0 -15 5 -15 10 0 6
7 10 15 10 8 0 15 -4 15 -10z m-247 -7 c-7 -2 -19 -2 -25 0 -7 3 -2 5 12 5 14
0 19 -2 13 -5z m247 -39 c0 -8 -5 -12 -10 -9 -6 4 -8 11 -5 16 9 14 15 11 15
-7z m-120 -71 c16 -19 15 -53 -1 -53 -6 0 -8 -4 -5 -8 6 -9 -71 -15 -84 -7 -4
3 5 19 21 36 16 17 29 35 29 40 0 15 25 10 40 -8z m-2060 -95 c0 -43 -34 -35
-38 9 -3 27 -1 31 17 26 15 -4 21 -13 21 -35z m258 5 c-2 -14 -9 -29 -17 -31
-8 -3 -11 0 -7 7 5 8 0 8 -19 1 -15 -6 -47 -10 -72 -10 -45 0 -46 0 -28 20 10
11 21 17 25 15 4 -3 13 2 20 10 8 9 30 15 57 15 42 0 44 -1 41 -27z m1687 17
c-3 -5 -10 -10 -16 -10 -5 0 -9 5 -9 10 0 6 7 10 16 10 8 0 12 -4 9 -10z
m-2388 -56 c-3 -3 -12 -4 -19 -1 -8 3 -5 6 6 6 11 1 17 -2 13 -5z m169 -7
c-15 -11 2 -13 104 -15 127 -2 140 -5 140 -26 0 -16 -87 -19 -96 -4 -4 6 -9 5
-14 -3 -7 -10 -12 -10 -26 2 -10 8 -15 9 -11 2 6 -9 -6 -11 -43 -8 -27 2 -55
7 -62 11 -7 4 -25 9 -42 11 -43 5 -42 9 6 26 56 19 66 20 44 4z m274 -23 c0
-21 -17 -17 -23 5 -3 14 -1 18 9 14 8 -3 14 -11 14 -19z m63 3 c9 8 95 5 113
-5 10 -6 8 -11 -9 -21 -20 -13 -21 -13 -8 2 7 10 9 17 3 17 -5 0 -15 -7 -22
-15 -15 -18 -100 -21 -100 -4 0 8 -5 8 -15 -1 -18 -15 -19 -7 -4 21 8 15 14
18 23 10 7 -6 16 -8 19 -4z m207 -16 c0 -13 -15 -21 -45 -27 -29 -5 -33 10 -7
25 22 13 52 14 52 2z m-26 -45 c-10 -8 -21 -12 -24 -10 -5 6 21 24 34 24 6 0
1 -6 -10 -14z m-64 -29 c-13 -12 -18 -14 -11 -4 8 9 10 17 5 17 -5 0 -2 4 6
10 25 16 25 1 0 -23z m110 9 c0 -2 -7 -6 -15 -10 -8 -3 -15 -1 -15 4 0 6 7 10
15 10 8 0 15 -2 15 -4z m2880 -16 c0 -5 -2 -10 -4 -10 -3 0 -8 5 -11 10 -3 6
-1 10 4 10 6 0 11 -4 11 -10z m-220 -30 c16 -17 32 -44 35 -61 9 -38 -4 -221
-16 -240 -7 -11 -9 -11 -9 4 0 9 -4 17 -9 17 -13 0 -81 -84 -81 -99 0 -6 -4
-11 -9 -11 -5 0 -14 -14 -20 -31 -17 -50 -76 -123 -119 -147 l-40 -22 20 42
c60 128 72 148 88 153 26 8 44 69 41 133 -2 47 -6 57 -37 84 -35 31 -40 55
-10 50 9 -2 20 7 26 20 l9 23 0 -22 c1 -31 21 -29 21 1 0 33 17 42 26 14 4
-13 10 -25 13 -28 8 -6 -2 -149 -14 -195 l-7 -30 18 25 c10 14 24 31 31 38 7
8 10 18 7 24 -4 6 -2 8 4 5 18 -12 57 83 56 136 0 38 -6 53 -29 77 -20 21 -35
28 -52 26 -13 -3 -22 -2 -20 2 2 4 7 15 10 25 9 26 36 21 67 -13z m210 6 c0
-3 -4 -8 -10 -11 -5 -3 -10 -1 -10 4 0 6 5 11 10 11 6 0 10 -2 10 -4z m670 0
c0 -3 -4 -8 -10 -11 -5 -3 -10 -1 -10 4 0 6 5 11 10 11 6 0 10 -2 10 -4z m137
-3 c-9 -2 -14 -9 -11 -15 4 -7 2 -8 -4 -4 -20 12 -13 26 11 25 17 -1 18 -2 4
-6z m-3344 -30 c-7 -2 -19 -2 -25 0 -7 3 -2 5 12 5 14 0 19 -2 13 -5z m3247
-13 c0 -5 -5 -10 -11 -10 -5 0 -7 5 -4 10 3 6 8 10 11 10 2 0 4 -4 4 -10z
m-656 -46 c17 -7 22 -44 6 -44 -5 0 -10 7 -10 15 0 8 -3 15 -7 16 -23 2 -46 8
-51 13 -7 8 42 8 62 0z m-134 -25 c0 -5 -4 -8 -9 -4 -5 3 -12 -5 -14 -17 -4
-20 -4 -19 -6 5 -1 18 4 27 14 27 8 0 15 -5 15 -11z m333 4 c-13 -2 -33 -2
-45 0 -13 2 -3 4 22 4 25 0 35 -2 23 -4z m-473 -50 c0 -25 -16 -39 -23 -20 -3
7 -3 26 0 41 4 20 8 24 14 14 5 -7 9 -23 9 -35z m233 20 c-7 -2 -19 -2 -25 0
-7 3 -2 5 12 5 14 0 19 -2 13 -5z m-3273 -18 c0 -10 -11 -15 -35 -15 -24 0
-35 5 -35 15 0 10 11 15 35 15 24 0 35 -5 35 -15z m300 0 c0 -8 -4 -15 -10
-15 -5 0 -7 7 -4 15 4 8 8 15 10 15 2 0 4 -7 4 -15z m-40 -5 c0 -5 -7 -10 -16
-10 -8 0 -12 5 -9 10 3 6 10 10 16 10 5 0 9 -4 9 -10z m0 -37 c0 -5 -5 -15
-10 -23 -8 -12 -10 -11 -10 8 0 12 5 22 10 22 6 0 10 -3 10 -7z m-50 -29 c0
-25 -24 -54 -46 -54 -9 0 -14 11 -14 33 0 40 2 43 35 43 19 0 25 -5 25 -22z
m80 1 c0 -14 -4 -25 -9 -25 -4 0 -6 11 -3 25 2 14 6 25 8 25 2 0 4 -11 4 -25z
m3143 18 c-35 -2 -91 -2 -125 0 -35 2 -7 3 62 3 69 0 97 -1 63 -3z m-2587 -18
c-10 -8 -23 -12 -28 -9 -14 9 2 24 25 24 21 -1 21 -1 3 -15z m24 -15 c0 -5 -4
-10 -10 -10 -5 0 -10 5 -10 10 0 6 5 10 10 10 6 0 10 -4 10 -10z m2293 4 c27
-5 37 -12 37 -24 0 -35 -12 -50 -40 -50 -34 0 -62 24 -53 47 4 11 3 14 -5 9
-7 -4 -12 -1 -12 8 0 17 15 19 73 10z m337 -10 c22 -5 28 -9 18 -15 -10 -7
-11 -9 0 -9 7 0 10 -4 7 -10 -11 -17 -61 -11 -80 10 -10 11 -22 17 -26 14 -5
-3 -17 0 -26 5 -14 8 -8 10 28 11 26 0 61 -3 79 -6z m-220 -20 c0 -10 -6 -14
-14 -11 -10 4 -16 -2 -19 -16 -3 -15 -5 -12 -6 11 -1 26 3 32 19 32 12 0 20
-7 20 -16z m-3603 -26 c-3 -8 -6 -5 -6 6 -1 11 2 17 5 13 3 -3 4 -12 1 -19z
m623 -24 c0 -8 -4 -12 -10 -9 -5 3 -10 10 -10 16 0 5 5 9 10 9 6 0 10 -7 10
-16z m67 -46 c-2 -13 -4 -3 -4 22 0 25 2 35 4 23 2 -13 2 -33 0 -45z m3763 48
c0 -24 -12 -46 -21 -40 -15 9 -10 54 6 54 8 0 15 -6 15 -14z m-1440 -73 c-1
-24 -2 -26 -11 -10 -5 9 -7 22 -4 27 10 17 15 11 15 -17z m1445 -23 c3 -5 1
-10 -4 -10 -6 0 -11 5 -11 10 0 6 2 10 4 10 3 0 8 -4 11 -10z m-198 -57 c-3
-10 -5 -4 -5 12 0 17 2 24 5 18 2 -7 2 -21 0 -30z m-440 21 c-3 -3 -12 -4 -19
-1 -8 3 -5 6 6 6 11 1 17 -2 13 -5z m633 -24 c13 -8 13 -10 -2 -10 -9 0 -20 5
-23 10 -8 13 5 13 25 0z m-4473 -47 c-3 -10 -5 -4 -5 12 0 17 2 24 5 18 2 -7
2 -21 0 -30z m-10 -80 c-3 -10 -5 -4 -5 12 0 17 2 24 5 18 2 -7 2 -21 0 -30z
m2945 -365 c-8 -8 -9 -4 -5 13 4 13 8 18 11 10 2 -7 -1 -18 -6 -23z m-2879
-15 c-7 -2 -19 -2 -25 0 -7 3 -2 5 12 5 14 0 19 -2 13 -5z m4284 -329 c-3 -3
-12 -4 -19 -1 -8 3 -5 6 6 6 11 1 17 -2 13 -5z m-2951 -366 c-8 -51 -18 -117
-21 -146 -8 -63 -17 -58 -34 20 -13 61 -7 99 29 180 39 89 47 73 26 -54z
m-496 97 c0 -2 -10 -9 -22 -15 -22 -11 -22 -10 -4 4 21 17 26 19 26 11z m-70
-79 c0 -2 -8 -10 -17 -17 -16 -13 -17 -12 -4 4 13 16 21 21 21 13z m3370 -120
c0 -11 -19 -15 -25 -6 -3 5 1 10 9 10 9 0 16 -2 16 -4z m-3667 -13 c-7 -2 -21
-2 -30 0 -10 3 -4 5 12 5 17 0 24 -2 18 -5z m3815 -20 c-10 -2 -26 -2 -35 0
-10 3 -2 5 17 5 19 0 27 -2 18 -5z m-3391 -51 c-10 -10 -17 -23 -17 -29 0 -5
-10 -18 -22 -29 l-21 -19 18 30 c22 35 46 65 53 65 3 0 -2 -8 -11 -18z m3068
-22 c-3 -5 -12 -10 -20 -10 -8 0 -17 5 -20 10 -4 6 5 10 20 10 15 0 24 -4 20
-10z m58 -17 c-7 -2 -21 -2 -30 0 -10 3 -4 5 12 5 17 0 24 -2 18 -5z m-3183
-54 c0 -5 -5 -7 -11 -4 -6 4 -9 1 -8 -6 2 -8 -4 -27 -12 -43 -13 -23 -17 -25
-22 -12 -4 10 1 20 14 26 11 6 17 15 14 21 -7 11 2 29 16 29 5 0 9 -5 9 -11z
m-374 -14 c-11 -8 -27 -14 -35 -14 -10 1 -9 3 4 7 l20 5 -20 8 c-16 6 -13 8
15 8 33 0 34 -1 16 -14z m301 -23 c-10 -10 -14 -21 -11 -25 3 -3 -3 -12 -15
-19 -12 -7 -21 -18 -21 -25 0 -7 -7 -10 -15 -7 -12 5 -13 8 0 20 7 8 12 23 10
34 -2 11 0 18 5 15 5 -3 11 -1 15 5 4 6 11 8 16 5 5 -4 9 -1 9 4 0 6 5 11 12
11 6 0 4 -7 -5 -18z m7 -66 c-3 -7 -12 -13 -21 -13 -14 0 -14 1 1 12 8 7 12
16 8 20 -4 5 -2 5 5 1 7 -4 10 -12 7 -20z m-150 -15 c12 -21 13 -40 7 -72 l-9
-44 -1 45 c-1 25 -8 57 -15 73 -8 15 -11 27 -6 27 5 0 16 -13 24 -29z"/>
<path d="M4078 4453 c6 -2 18 -2 25 0 6 3 1 5 -13 5 -14 0 -19 -2 -12 -5z"/>
<path d="M2528 4173 c7 -3 16 -2 19 1 4 3 -2 6 -13 5 -11 0 -14 -3 -6 -6z"/>
<path d="M2458 4063 c7 -3 16 -2 19 1 4 3 -2 6 -13 5 -11 0 -14 -3 -6 -6z"/>
<path d="M1830 4126 c0 -8 -6 -16 -12 -19 -7 -2 -1 -4 14 -3 22 1 24 4 17 19
-12 21 -19 22 -19 3z"/>
<path d="M3035 4101 c-9 -16 9 -20 23 -5 10 12 10 14 -2 14 -8 0 -17 -4 -21
-9z"/>
<path d="M3600 4139 c-13 -9 -12 -10 2 -6 17 6 42 -15 31 -26 -3 -4 3 -7 15
-7 15 0 22 6 21 18 0 11 -2 13 -6 4 -4 -10 -10 -9 -27 7 -16 15 -25 17 -36 10z"/>
<path d="M3438 4113 c6 -2 18 -2 25 0 6 3 1 5 -13 5 -14 0 -19 -2 -12 -5z"/>
<path d="M3490 4089 c-25 -9 -25 -9 3 -5 17 2 27 -1 27 -9 0 -7 10 -15 21 -18
18 -5 19 -4 8 6 -7 7 -18 17 -24 23 -6 7 -19 8 -35 3z"/>
<path d="M3477 4029 c8 -8 16 -8 30 0 16 9 14 10 -11 11 -22 0 -27 -3 -19 -11z"/>
<path d="M3580 4023 c0 -9 48 -33 64 -33 5 0 0 9 -12 20 -21 20 -52 27 -52 13z"/>
<path d="M3502 4001 c2 -7 7 -12 11 -12 12 1 9 15 -3 20 -7 2 -11 -2 -8 -8z"/>
<path d="M3638 3943 c7 -3 16 -2 19 1 4 3 -2 6 -13 5 -11 0 -14 -3 -6 -6z"/>
<path d="M4100 4053 c0 -5 5 -15 10 -23 8 -12 10 -11 10 8 0 12 -4 22 -10 22
-5 0 -10 -3 -10 -7z"/>
<path d="M460 3832 c0 -5 7 -9 15 -9 8 0 15 4 15 9 0 4 -7 8 -15 8 -8 0 -15
-4 -15 -8z"/>
<path d="M238 3803 c7 -3 16 -2 19 1 4 3 -2 6 -13 5 -11 0 -14 -3 -6 -6z"/>
<path d="M445 3799 c-11 -17 1 -21 15 -4 8 9 8 15 2 15 -6 0 -14 -5 -17 -11z"/>
<path d="M267 3780 c-9 -11 -13 -20 -7 -20 5 0 11 4 15 10 3 5 13 6 22 3 10
-4 14 -2 11 7 -7 22 -22 22 -41 0z"/>
<path d="M3266 1817 c-11 -8 -17 -20 -14 -27 3 -9 12 -5 32 14 30 27 16 38
-18 13z"/>
<path d="M830 245 c-7 -9 -8 -15 -2 -15 5 0 12 7 16 15 3 8 4 15 2 15 -2 0 -9
-7 -16 -15z"/>
<path d="M1537 4443 c-16 -30 -16 -32 3 -38 10 -3 22 -15 25 -26 4 -11 9 -18
12 -16 9 10 -8 47 -23 47 -17 0 -18 12 -3 27 6 6 9 17 7 25 -3 8 -11 1 -21
-19z"/>
<path d="M1100 4450 c8 -5 20 -10 25 -10 6 0 3 5 -5 10 -8 5 -19 10 -25 10 -5
0 -3 -5 5 -10z"/>
<path d="M1680 4456 c0 -2 7 -6 15 -10 8 -3 15 -1 15 4 0 6 -7 10 -15 10 -8 0
-15 -2 -15 -4z"/>
<path d="M1187 4429 c7 -7 15 -10 18 -7 3 3 -2 9 -12 12 -14 6 -15 5 -6 -5z"/>
<path d="M965 4410 c-28 -7 -28 -8 -5 -9 14 0 32 4 40 9 17 11 8 11 -35 0z"/>
<path d="M1040 4413 c0 -3 9 -14 21 -24 20 -17 20 -18 1 -28 -21 -11 -37 -41
-23 -41 5 0 20 10 34 22 20 18 23 26 15 44 -9 20 -48 41 -48 27z"/>
<path d="M1682 4405 c-10 -12 -10 -15 0 -15 25 0 58 12 58 21 0 14 -44 10 -58
-6z"/>
<path d="M1138 4403 c6 -2 18 -2 25 0 6 3 1 5 -13 5 -14 0 -19 -2 -12 -5z"/>
<path d="M1867 4393 c-13 -13 -7 -21 13 -16 11 3 17 9 14 14 -6 11 -18 12 -27
2z"/>
<path d="M1598 4373 c7 -3 16 -2 19 1 4 3 -2 6 -13 5 -11 0 -14 -3 -6 -6z"/>
<path d="M980 4366 c0 -2 9 -6 20 -9 11 -3 18 -1 14 4 -5 9 -34 13 -34 5z"/>
<path d="M551 4339 c-25 -21 -24 -33 2 -23 14 5 31 33 25 40 -2 1 -14 -6 -27
-17z"/>
<path d="M860 4349 c0 -5 5 -7 10 -4 6 3 10 8 10 11 0 2 -4 4 -10 4 -5 0 -10
-5 -10 -11z"/>
<path d="M1125 4350 c3 -5 8 -10 11 -10 2 0 4 5 4 10 0 6 -5 10 -11 10 -5 0
-7 -4 -4 -10z"/>
<path d="M1940 4354 c0 -11 34 -33 50 -33 9 0 6 5 -8 12 -12 7 -19 16 -16 20
4 4 0 7 -9 7 -9 0 -17 -3 -17 -6z"/>
<path d="M895 4330 c-10 -11 -30 -20 -44 -20 -20 0 -22 -3 -12 -9 10 -6 23 -5
35 1 12 6 21 10 21 9 0 -1 11 2 25 8 18 7 20 10 7 10 -10 1 -15 6 -12 11 10
17 -1 11 -20 -10z"/>
<path d="M1582 4335 c-18 -20 6 -20 32 0 20 15 20 15 0 15 -10 -1 -25 -7 -32
-15z"/>
<path d="M1846 4325 c-3 -8 -1 -15 4 -15 6 0 10 7 10 15 0 8 -2 15 -4 15 -2 0
-6 -7 -10 -15z"/>
<path d="M355 4310 c-3 -5 -1 -10 4 -10 6 0 11 5 11 10 0 6 -2 10 -4 10 -3 0
-8 -4 -11 -10z"/>
<path d="M2080 4310 c0 -5 9 -10 20 -10 11 0 20 5 20 10 0 6 -9 10 -20 10 -11
0 -20 -4 -20 -10z"/>
<path d="M390 4302 c0 -4 12 -8 28 -9 23 -1 24 -1 7 7 -26 11 -35 12 -35 2z"/>
<path d="M2000 4289 c0 -3 8 -13 18 -22 16 -14 17 -14 17 7 0 14 -6 22 -17 22
-10 0 -18 -3 -18 -7z"/>
<path d="M360 4279 c0 -5 5 -7 10 -4 6 3 10 8 10 11 0 2 -4 4 -10 4 -5 0 -10
-5 -10 -11z"/>
<path d="M1355 4250 c-3 -5 1 -10 9 -10 9 0 16 5 16 10 0 6 -4 10 -9 10 -6 0
-13 -4 -16 -10z"/>
<path d="M325 4240 c3 -5 8 -10 11 -10 2 0 4 5 4 10 0 6 -5 10 -11 10 -5 0 -7
-4 -4 -10z"/>
<path d="M385 4240 c3 -5 12 -7 20 -3 21 7 19 13 -6 13 -11 0 -18 -4 -14 -10z"/>
<path d="M698 4163 c7 -3 16 -2 19 1 4 3 -2 6 -13 5 -11 0 -14 -3 -6 -6z"/>
<path d="M601 4134 c0 -11 3 -14 6 -6 3 7 2 16 -1 19 -3 4 -6 -2 -5 -13z"/>
<path d="M288 4073 c7 -3 16 -2 19 1 4 3 -2 6 -13 5 -11 0 -14 -3 -6 -6z"/>
<path d="M138 4063 c7 -3 16 -2 19 1 4 3 -2 6 -13 5 -11 0 -14 -3 -6 -6z"/>
<path d="M20 3821 c0 -5 7 -11 15 -15 8 -3 15 -1 15 3 0 5 -7 11 -15 15 -8 3
-15 1 -15 -3z"/>
<path d="M410 3080 c20 -13 57 -13 65 0 4 6 -11 10 -37 10 -31 0 -39 -3 -28
-10z"/>
<path d="M380 3061 c0 -5 7 -12 16 -15 24 -9 28 -7 14 9 -14 17 -30 20 -30 6z"/>
<path d="M1625 2701 c22 -4 49 -13 60 -20 19 -11 18 -12 -7 -8 -42 6 -136 -10
-153 -27 -9 -8 -22 -13 -29 -10 -8 3 -17 1 -21 -5 -3 -7 0 -8 9 -5 26 10 18
-14 -14 -43 -23 -20 -27 -29 -19 -40 14 -17 50 -17 47 0 -2 6 3 11 10 9 7 -1
15 6 19 15 12 36 83 73 83 43 0 -5 -6 -10 -14 -10 -26 0 -27 -19 -5 -50 31
-41 81 -42 115 -2 13 15 24 34 24 42 0 10 9 5 26 -13 28 -31 23 -47 -15 -50
-11 -1 -21 -5 -21 -10 0 -4 24 -7 52 -5 44 2 53 7 57 23 2 11 9 24 17 28 8 4
14 13 14 19 0 19 -61 87 -74 82 -7 -3 -35 6 -61 20 -33 18 -62 26 -94 25 l-46
-2 40 -6z"/>
<path d="M1534 2685 c-10 -8 -14 -15 -8 -15 5 0 19 7 30 15 10 8 14 15 8 15
-5 0 -19 -7 -30 -15z"/>
<path d="M1548 2513 c7 -3 16 -2 19 1 4 3 -2 6 -13 5 -11 0 -14 -3 -6 -6z"/>
<path d="M1648 2483 c7 -3 16 -2 19 1 4 3 -2 6 -13 5 -11 0 -14 -3 -6 -6z"/>
<path d="M2144 2122 c23 -76 27 -111 17 -131 -15 -26 -26 -27 -48 -1 -10 11
-33 23 -53 26 -19 4 -39 10 -45 14 -5 4 -21 3 -35 -1 -25 -7 -25 -7 4 -8 37
-1 30 -10 -12 -13 -17 -1 -29 -4 -27 -7 12 -11 -21 -31 -51 -31 -19 0 -34 -5
-34 -11 0 -7 9 -9 21 -6 16 4 18 3 9 -8 -12 -15 -6 -35 11 -35 6 0 25 -11 43
-25 34 -26 37 -26 136 2 68 20 97 45 112 97 16 55 16 65 -4 107 -18 39 -54 64
-44 31z"/>
<path d="M1727 2024 c-2 -3 0 -16 7 -29 8 -18 19 -25 40 -25 29 0 29 0 10 21
-22 25 -49 40 -57 33z"/>
<path d="M1873 1773 c-13 -2 -23 -7 -23 -11 0 -4 -11 -20 -24 -35 -20 -23 -29
-27 -48 -21 -13 4 -27 7 -33 5 -5 -2 -19 -4 -30 -5 -11 -1 -19 -8 -17 -16 3
-11 0 -11 -12 0 -19 15 -21 24 -4 14 6 -4 8 -3 5 4 -9 13 -42 5 -58 -14 -6 -8
-19 -14 -29 -14 -9 0 -22 -11 -28 -25 -11 -24 -10 -25 23 -25 19 0 55 5 79 12
33 9 64 9 127 0 46 -6 120 -16 164 -22 44 -6 84 -15 89 -20 6 -6 19 -10 29
-10 15 0 17 -3 8 -14 -7 -8 -30 -13 -59 -13 -66 0 -138 -12 -203 -34 -30 -10
-68 -19 -83 -19 -24 0 -26 -3 -20 -22 18 -59 81 -80 187 -65 57 8 77 15 80 28
6 22 165 99 205 99 67 0 80 26 35 68 -39 35 -270 153 -307 156 -17 2 -41 1
-53 -1z"/>
<path d="M742 1590 c0 -14 2 -19 5 -12 2 6 2 18 0 25 -3 6 -5 1 -5 -13z"/>
<path d="M0 1199 c0 -5 11 -9 25 -9 32 0 32 6 0 12 -14 3 -25 1 -25 -3z"/>
<path d="M1353 1043 c9 -2 23 -2 30 0 6 3 -1 5 -18 5 -16 0 -22 -2 -12 -5z"/>
<path d="M1378 1013 c7 -3 16 -2 19 1 4 3 -2 6 -13 5 -11 0 -14 -3 -6 -6z"/>
<path d="M1430 1010 c-13 -8 -12 -10 3 -10 9 0 17 5 17 10 0 12 -1 12 -20 0z"/>
<path d="M3853 973 c9 -2 25 -2 35 0 9 3 1 5 -18 5 -19 0 -27 -2 -17 -5z"/>
<path d="M1100 690 l-25 -8 28 -1 c15 -1 27 4 27 9 0 6 -1 10 -2 9 -2 -1 -14
-5 -28 -9z"/>
<path d="M1028 673 c7 -3 16 -2 19 1 4 3 -2 6 -13 5 -11 0 -14 -3 -6 -6z"/>
<path d="M990 650 c0 -5 7 -7 15 -4 8 4 15 8 15 10 0 2 -7 4 -15 4 -8 0 -15
-4 -15 -10z"/>
<path d="M4152 491 c-11 -7 -10 -9 3 -14 9 -4 14 -3 10 2 -3 5 1 12 7 14 7 3
9 6 3 6 -5 0 -16 -3 -23 -8z"/>
<path d="M2786 254 c-7 -18 10 -44 27 -44 8 0 8 3 0 11 -6 6 -9 17 -7 24 3 7
1 16 -4 19 -6 3 -13 -1 -16 -10z"/>
<path d="M612 178 c-9 -9 -7 -14 6 -24 16 -12 16 -14 -3 -28 -22 -17 -39 -21
-30 -7 3 5 -5 13 -17 17 -13 4 -26 12 -30 18 -5 7 -22 -3 -48 -29 -45 -44 -50
-56 -20 -48 14 4 20 0 20 -12 0 -18 12 -16 79 11 33 14 81 10 81 -7 0 -5 -8
-13 -17 -16 -10 -4 -22 -12 -28 -19 -5 -7 -26 -17 -45 -23 -30 -8 -25 -9 40
-8 l75 2 11 53 c7 29 10 63 7 75 -12 48 -54 72 -81 45z"/>
<path d="M2778 183 c7 -3 16 -2 19 1 4 3 -2 6 -13 5 -11 0 -14 -3 -6 -6z"/>
<path d="M2010 87 c0 -9 -11 -12 -36 -9 -35 4 -84 -13 -84 -30 0 -4 7 -8 15
-8 18 0 19 -12 3 -28 -9 -9 8 -12 80 -12 77 0 92 3 92 16 0 8 4 13 9 9 5 -3
12 -1 16 5 3 5 1 10 -5 10 -14 0 -34 20 -43 43 -7 20 -47 23 -47 4z"/>
<path d="M575 60 c-11 -5 -15 -9 -10 -10 6 0 1 -7 -9 -15 -26 -19 -13 -19 24
0 45 23 40 44 -5 25z"/>
<path d="M436 51 c-4 -7 -5 -15 -2 -18 9 -9 19 4 14 18 -4 11 -6 11 -12 0z"/>
<path d="M461 44 c0 -11 3 -14 6 -6 3 7 2 16 -1 19 -3 4 -6 -2 -5 -13z"/>
<path d="M510 40 c-8 -5 -10 -10 -5 -10 6 0 17 5 25 10 8 5 11 10 5 10 -5 0
-17 -5 -25 -10z"/>
<path d="M2545 10 c-3 -5 -1 -10 4 -10 6 0 11 5 11 10 0 6 -2 10 -4 10 -3 0
-8 -4 -11 -10z"/>
<path d="M2508 3 c7 -3 16 -2 19 1 4 3 -2 6 -13 5 -11 0 -14 -3 -6 -6z"/>
</g>
</svg>
